<?xml version="1.0" encoding="UTF-8"?><svg id="Layer_2" xmlns="http://www.w3.org/2000/svg" width="302.85" height="101.56" viewBox="0 0 302.85 101.56"><defs><style>.cls-1{fill:#c39853;}.cls-1,.cls-2{stroke-width:0px;}.cls-2{fill:#fff;}</style></defs><g id="Layer_1-2"><polygon class="cls-1" points="254.23 59.54 253.5 63.02 250.33 63.02 249.6 59.54 254.23 59.54"/><path class="cls-1" d="M251.85,44.29s-.01,0-.02.01v.11h0s0,.83,0,.83v-.81s0-.02,0-.02h0v-.14l.03.02Z"/><path class="cls-1" d="M252.4,40.95l-.17.27v-.52l.03-.05c.05.1.1.2.14.29"/><path class="cls-1" d="M252.55,42.88c-.1-.18-.2-.38-.29-.59h0s.02-.03.02-.03l.27.62Z"/><path class="cls-1" d="M253.05,39.93l-.45.72c-.04-.11-.08-.22-.12-.33l.46-.73c.03.12.07.23.11.34"/><path class="cls-1" d="M254.87,42.49s-.04.1-.05.15c-.23-.02-.45-.04-.68-.06.01-.04.03-.09.05-.13.22.01.45.03.68.05"/><path class="cls-1" d="M255.18,41.69c-.02.05-.05.1-.07.16-.23-.03-.46-.04-.68-.06.01-.04.03-.09.05-.13.23,0,.46.01.7.03"/><path class="cls-1" d="M256.19,42.04v-.05c-.23-.04-.45-.07-.67-.1.03-.06.06-.11.09-.17.25.02.48.04.71.08-.05.08-.09.16-.13.24"/><path class="cls-1" d="M256.8,41.01c-.04.06-.08.12-.11.18-.23-.04-.47-.07-.72-.09.04-.06.07-.12.11-.18.25.03.48.06.72.1"/><path class="cls-1" d="M263.5,35.59c.2.07.4.14.61.22l-.25.61c-.31-.12-.62-.23-.91-.31-.3-.09-.54-.15-.77-.2-.1.03-.21.06-.31.1.43.09.84.19,1.23.32l-.2.63c-.7-.23-1.47-.38-2.29-.47-.05.02-.11.05-.16.08.46.07.94.16,1.42.29l-.17.64c-.81-.21-1.6-.33-2.35-.37-.07.04-.15.08-.22.12.67.05,1.26.15,1.83.3l-.16.64c-.77-.2-1.6-.3-2.62-.33-.04.03-.07.05-.11.07.72.07,1.41.19,2.06.37l-.17.64c-.83-.22-1.73-.35-2.68-.4-.03.02-.04.04-.06.05.71.12,1.4.28,2.05.5l-.2.63c-.79-.25-1.63-.43-2.51-.55-.07.07-.14.13-.2.2.8.14,1.53.32,2.24.55l-.21.63c-.13-.04-.26-.08-.39-.12-.69-.2-1.43-.36-2.22-.47-.08.09-.16.17-.24.26.81.06,1.59.18,2.32.35.03,0,.07.01.1.02l-.16.64c-.15-.04-.31-.07-.47-.1-.17-.04-.34-.07-.51-.09-.23-.04-.47-.07-.72-.1-.36-.04-.74-.07-1.12-.09-.05.06-.1.12-.15.18.27.01.55.03.83.06.11.01.22.02.32.03.25.02.49.06.72.09.17.02.33.05.48.08l-.12.65c-.11-.02-.22-.04-.34-.06-.12-.02-.26-.04-.39-.05-.23-.03-.46-.06-.71-.08,0,0-.02,0-.02,0-.14-.01-.28-.02-.42-.03-.24-.01-.47-.02-.7-.03-.05,0-.1,0-.15,0-.03.04-.06.08-.08.12.06,0,.12,0,.19.01.23.01.45.03.69.06.14.01.27.03.41.05.22.03.44.06.67.1v.05s0,0,0,0l-.04.47v.14c-.33-.05-.63-.09-.93-.12-.11-.02-.23-.03-.34-.04-.23-.02-.46-.04-.68-.05-.13-.01-.26-.02-.4-.02-.02.04-.05.08-.08.12.14,0,.28.02.42.03.22.02.45.04.68.06.11,0,.21.02.32.04.05,0,.11.01.17.02l-.08.66c-.51-.07-1-.11-1.46-.14h0c-.15-.01-.29-.02-.44-.02-.06.11-.12.22-.19.33-.08.05-.17.1-.25.15-.22.13-.44.27-.65.4v-.63c.09-.17.19-.34.32-.55l-.27-.62.44-.7c.1.19.2.37.3.55.03-.05.07-.1.1-.16-.09-.2-.18-.4-.26-.62l.44-.69c.08.23.17.45.26.66.04-.05.08-.1.11-.16-.08-.25-.15-.51-.21-.77l.46-.73-.45-.39-.19.31c-.03-.13-.05-.26-.08-.39l.54-.86c.05.43.14.89.25,1.38.06.27.12.53.19.79.06-.08.12-.15.18-.22-.21-1.03-.33-2.07-.35-3.11h.66c.02.81.1,1.65.24,2.47.09-.1.18-.2.27-.3-.14-.99-.21-1.98-.19-2.93h.66c-.02.77.02,1.55.12,2.34.08-.08.16-.16.24-.24,0-.95.08-1.9.24-2.83l.65.11c-.12.7-.19,1.42-.22,2.13.02-.02.04-.04.06-.06.01-.01.03-.02.04-.03.21-1.01.51-1.99.9-2.91l.61.26c-.28.65-.51,1.33-.69,2.03.04-.03.09-.06.13-.09.41-1.01.86-1.89,1.37-2.66l.55.37c-.34.5-.64,1.05-.92,1.66.08-.05.17-.1.25-.15.41-.72.91-1.44,1.55-2.18l.5.43c-.34.4-.65.8-.92,1.19.08-.03.15-.07.22-.1.56-.7,1.18-1.33,1.84-1.87l.42.51c-.33.27-.64.56-.94.87.11-.04.23-.07.34-.1.22-.21.44-.39.62-.54.28-.24.58-.47.9-.68l.37.55c-.16.1-.31.22-.46.33.3-.06.59-.1.89-.13l.09.82c-.3.03-.59.08-.89.13"/><path class="cls-1" d="M264.75,57.45c-.11-.17-.24-.34-.37-.51.09.35.17.71.25,1.07l-.81.16c-.07-.37-.16-.73-.25-1.09-.04.24-.09.47-.14.7l-.64-.15c.14-.6.24-1.25.32-2.08-.05-.14-.1-.28-.15-.42-.03.5-.09.98-.17,1.44l-.65-.11c.15-.84.21-1.75.21-2.78-.04-.08-.08-.17-.12-.25v.09c-.03.54-.07,1.05-.12,1.55l-.66-.07c.05-.48.1-.98.12-1.49v-.38c0-.3,0-.61-.01-.92-.07-.11-.13-.22-.2-.33.01.64,0,1.32-.08,2.06l-.66-.06c.11-1.15.11-2.15,0-3.06-.04-.06-.09-.12-.13-.18,0,.2,0,.41,0,.62,0,.51-.04,1.06-.12,1.67l-.65-.09c.08-.59.11-1.11.11-1.6.02-.51-.01-1-.05-1.47,0,0-.01-.02-.02-.03-.03-.04-.07-.08-.11-.12-.02.75-.1,1.5-.24,2.24l-.65-.12c.18-.93.25-1.87.23-2.81-.1-.1-.21-.2-.32-.3-.01.79-.09,1.6-.24,2.41l-.65-.12c.17-.97.24-1.94.22-2.87-.14-.11-.27-.21-.41-.32.03.29.05.6.07.9.01.56,0,1.12-.04,1.69l-.66-.05c.04-.54.05-1.09.04-1.61-.03-.49-.08-.97-.14-1.43-.1-.07-.21-.14-.32-.21.14.84.2,1.68.18,2.49h-.66c.03-.96-.07-1.94-.28-2.92-.08-.04-.16-.09-.24-.13.14.78.2,1.46.21,2.12h-.66c0-.74-.09-1.51-.28-2.45-.09-.04-.17-.08-.26-.11.12.59.2,1.13.25,1.65l-.66.06c-.05-.61-.16-1.25-.32-1.97-.67-.22-1.96-.5-1.98-.5.18-.1.38-.22.59-.35.14-.08.28-.17.43-.26.18.04.36.08.54.13.27.07.53.14.73.21.26-.19.53-.37.78-.53.18.14.35.29.52.45-.18.11-.36.23-.55.36.1.04.2.09.3.13.17-.09.33-.17.49-.25.04.04.08.07.11.11l.55-.41s0,0,0,0c.08-.03.16-.07.24-.1.15.15.3.32.45.49l.6-.33c-.12-.14-.25-.28-.37-.42.11-.04.22-.08.32-.11.06.06.12.12.17.18l.13.41c-.61.19-1.26.45-1.94.79.1.05.2.11.29.16.71-.25,1.44-.44,2.19-.58.03.03.05.07.08.1l.2-.15c.24-.04.48-.08.72-.1l.08.65c-.86.1-1.69.27-2.51.52.12.08.25.16.36.23.47-.1.98-.18,1.53-.25.6-.06,1.23-.09,1.89-.09v.66c-.64,0-1.25.04-1.82.09-.29.04-.58.08-.85.12.15.12.31.24.46.36,1-.14,2.07-.18,3.2-.12l-.03.66c-.87-.04-1.7-.03-2.49.04.12.11.25.23.37.35,1,.03,2.04.16,3.1.4l-.15.64c-.78-.18-1.54-.29-2.29-.35.03.04.07.07.1.11.02.02.03.04.05.07.47.11.98.26,1.5.45.54.18,1.11.42,1.74.73l-.29.59c-.6-.29-1.14-.52-1.67-.7-.18-.07-.36-.13-.54-.18.05.07.1.14.15.21.92.4,1.87.94,2.96,1.69l-.37.54c-.66-.45-1.26-.83-1.84-1.13.08.12.15.24.22.36.27.17.53.35.79.54l.34.24c.45.34.88.7,1.31,1.08l-.43.5c-.43-.37-.84-.72-1.27-1.04l-.04-.03c.05.1.1.21.15.31.81.71,1.51,1.41,2.1,2.14l-.51.42c-.3-.36-.63-.72-.98-1.08.06.16.12.31.17.47.57.63,1.02,1.19,1.4,1.74l-.55.37Z"/><path class="cls-1" d="M251.83,44.41h0s-.01.83-.01.83v-.81s0-.02,0-.02h0s0,0,0,0h0Z"/><path class="cls-1" d="M256.24,44.4c-.07.04-.14.08-.21.12-.17-.16-.35-.31-.53-.46.08-.04.16-.09.23-.13.17.14.33.28.48.43l.02.04Z"/><path class="cls-1" d="M251.85,44.29s-.01,0-.02.01v.11h0s-.02.01-.02.01v-.02h0v-.14l.03.02Z"/><path class="cls-1" d="M253.46,39.26l.45.39-.46.73-.16.26h0s-.44.7-.44.7l-.14.23-.44.7-.02.02h0s-.03.05-.03.05v1.73c-.13.08-.26.16-.39.24l-.03-.02c-.14-.08-.28-.16-.41-.24v-1.75l-.02-.04-.02-.03-.44-.7-.14-.22-.44-.7-.16-.26-.48-.76.49-.31.17.27.23.36.45.72.19.3.17.27v-.52l-.03-.04-.21-.34-.46-.73-.26-.4-.54-.86-.21-.33.49-.32,1.2,1.91v-.36l-1.45-2.84.52-.27.93,1.82v-.51l-1.2-2.62.53-.24.66,1.45v-.43l-1.06-2.64.54-.22.51,1.28v-.58l-.75-1.96.55-.21.21.53v-1.26h.83v1.33l.23-.61.55.21-.78,2.03v.58l.54-1.35.55.22-1.08,2.71v.42l.69-1.51.54.24-1.23,2.68v.51l.96-1.87.52.27-1.48,2.9v.35h0s.8-1.29.8-1.29l.42-.67.5.31-.24.37-.54.86-.25.4-.46.73-.22.34-.03.05v.52l.17-.27.19-.3.45-.72.22-.36.19-.31Z"/><path class="cls-1" d="M251.81,44.43v.81c-.28-.17-.64-.39-1.01-.61-.12-.07-.25-.15-.38-.22-.36-.21-.71-.39-1.01-.5-.23.17-.45.34-.66.52-.18.15-.35.29-.52.45-.08.08-.17.15-.25.24-.04.03-.07.07-.11.11l-.56-.42h0c.1-.1.2-.2.31-.3.17-.15.35-.31.53-.46.17-.13.34-.27.51-.4-.1-.03-.2-.06-.3-.08-.16.12-.3.24-.44.35-.17.14-.32.28-.47.42-.12.12-.24.24-.37.36-.15.16-.3.32-.45.49l-.59-.33c.12-.14.25-.28.37-.41.35-.37.73-.73,1.14-1.07-.1-.03-.2-.04-.3-.06-.41.32-.8.66-1.15,1.02-.06.06-.12.12-.18.18-.24.25-.46.51-.67.78-.03.04-.05.07-.08.1l-.2-.15-.33-.25c.5-.66,1.08-1.27,1.72-1.83-.14-.02-.27-.03-.4-.04-.78.71-1.46,1.49-1.99,2.34l-.56-.35c.46-.73,1.01-1.41,1.64-2.04-.19,0-.37,0-.56,0-.65.78-1.19,1.59-1.59,2.43l-.6-.28c.34-.72.77-1.42,1.29-2.1-.16.01-.31.03-.47.05-.62.78-1.13,1.59-1.5,2.42l-.61-.27c.3-.68.69-1.34,1.15-1.99-.06.01-.12.02-.18.03-.01,0-.02,0-.03.01-.71.79-1.3,1.66-1.74,2.58l-.59-.28c.33-.7.75-1.36,1.23-1.99-.08.02-.16.06-.25.08-.69.8-1.27,1.66-1.71,2.6l-.59-.28c.3-.64.67-1.24,1.09-1.82-.12.06-.24.11-.36.17-.57.77-1.05,1.61-1.42,2.49l-.61-.26c.22-.52.48-1.03.77-1.52-.09.06-.18.11-.26.17h0c-.5.8-.92,1.67-1.25,2.58l-.62-.22c.17-.47.36-.93.57-1.38-.12.1-.24.21-.36.32-.29.66-.55,1.34-.75,2.05l-.64-.18c.07-.23.14-.46.21-.68-.26.29-.51.58-.75.9l-.65-.51c.24-.31.49-.61.74-.89-.2.1-.4.2-.6.31l-.32-.58c.7-.38,1.42-.7,2.13-.97.13-.12.26-.23.39-.35-.47.15-.95.32-1.42.52l-.26-.61c1-.43,2.02-.74,3.01-.94.03-.02.05-.04.08-.06.08-.05.15-.1.23-.15-.56.07-1.14.17-1.71.31l-.16-.64c1.08-.26,2.14-.4,3.18-.42.14-.07.27-.13.41-.2-.72-.05-1.46-.04-2.22.03l-.06-.66c1.23-.12,2.42-.08,3.57.1.09-.03.18-.07.27-.1-.77-.22-1.58-.37-2.41-.45l.06-.66c1.23.11,2.41.38,3.51.79.04,0,.07-.02.11-.02.05-.01.11-.02.16-.04-.68-.4-1.41-.73-2.15-1l.22-.62c1.02.36,2,.85,2.91,1.45.19-.02.37-.04.56-.06-.64-.56-1.33-1.06-2.07-1.49l.33-.57c.96.56,1.85,1.24,2.65,2,.21,0,.43,0,.64,0-.62-.65-1.32-1.25-2.09-1.78l.37-.54c1.01.7,1.89,1.5,2.65,2.38.16.01.33.03.49.05-.51-.7-1.09-1.36-1.75-1.97l.37-.48.21.63c.12-.04.24-.08.37-.11.04.04.09.08.14.13-.03,0-.05.01-.08.02l.16.64c.14-.03.29-.07.45-.1.06.06.11.12.16.18h0s.12.62.12.62c.11-.02.22-.04.33-.05.16.21.3.42.44.63.04,0,.08.02.13.02v.14c.33-.05.64-.09.94-.12.02.04.05.09.07.14-.05,0-.11.01-.17.02l.08.66c.51-.07,1-.11,1.46-.14h0c.21.08.41.18.61.29h0c.09.05.18.1.27.15.22.12.44.26.66.39.14.08.27.16.41.24v.13h0v.02Z"/><path class="cls-1" d="M251.16,40.28c-.04.11-.08.23-.12.33l-.45-.72c.04-.11.07-.23.11-.34l.46.73Z"/><path class="cls-1" d="M251.38,42.25c-.11.26-.22.51-.34.71l.32-.74.02.03Z"/><path class="cls-1" d="M251.4,40.66v.52l-.17-.27c.05-.1.1-.2.14-.3l.03.04Z"/><path class="cls-1" d="M247.65,41.1c-.25.02-.49.06-.72.09-.03-.06-.07-.12-.11-.18.23-.04.47-.07.72-.1.04.06.08.12.11.18"/><path class="cls-1" d="M247.43,41.99v.04c-.04-.08-.08-.15-.12-.23.22-.03.46-.06.71-.08.04.06.06.11.09.17-.22.03-.45.06-.67.1"/><path class="cls-1" d="M249.2,41.79c-.23.01-.45.03-.69.06-.02-.06-.04-.11-.06-.16.24-.01.47-.03.7-.03.02.04.03.09.05.13"/><path class="cls-1" d="M249.48,42.57c-.22.02-.45.04-.68.06-.01-.05-.03-.1-.05-.15.23-.02.46-.04.68-.05.02.04.04.09.05.13"/><polygon class="cls-1" points="251.81 44.41 251.81 45.24 251.81 44.43 251.81 44.41 251.81 44.41"/><path class="cls-1" d="M251.81,45.24s-1.31.28-1.98.5c-.17.72-.27,1.36-.32,1.97l-.66-.05c.04-.52.12-1.06.24-1.65-.09.03-.17.07-.26.11-.19.95-.28,1.71-.28,2.46h-.66c0-.67.07-1.34.21-2.12-.08.04-.17.09-.25.13-.2.98-.3,1.96-.27,2.91h-.66c-.02-.8.04-1.64.18-2.48-.11.06-.21.13-.32.2-.06.46-.11.94-.14,1.43-.01.53,0,1.07.04,1.61l-.66.05c-.04-.56-.06-1.13-.04-1.69.02-.3.04-.61.07-.9-.14.1-.27.21-.41.32-.02.94.04,1.9.22,2.87l-.65.12c-.15-.81-.23-1.62-.24-2.41-.11.1-.21.2-.32.3-.02.93.06,1.88.23,2.81l-.65.12c-.14-.74-.22-1.49-.24-2.24-.03.04-.07.08-.11.12,0,0-.01.02-.02.03-.04.46-.07.96-.05,1.47,0,.49.04,1.01.11,1.6l-.65.09c-.08-.62-.12-1.17-.12-1.67,0-.21,0-.42,0-.62-.04.06-.09.12-.13.18-.1.91-.1,1.91,0,3.06l-.66.06c-.07-.74-.09-1.42-.08-2.06-.07.11-.13.21-.2.32-.01.3-.02.61-.01.92v.38c.02.51.07,1.01.12,1.49l-.66.07c-.05-.5-.1-1.01-.12-1.55v-.09c-.04.08-.08.17-.12.25,0,1.03.07,1.94.21,2.78l-.65.11c-.08-.46-.14-.93-.18-1.44-.05.14-.1.27-.15.41.08.83.18,1.48.31,2.08l-.64.15c-.05-.22-.1-.45-.14-.7-.09.36-.18.72-.25,1.09l-.81-.16c.07-.36.16-.71.25-1.07-.14.17-.26.34-.38.51l-.54-.37c.38-.55.83-1.1,1.4-1.74.05-.16.11-.32.17-.47-.35.36-.67.72-.98,1.08l-.51-.42c.6-.73,1.29-1.43,2.1-2.14.05-.1.1-.21.15-.31l-.04.03c-.43.33-.85.67-1.27,1.05l-.43-.5c.44-.38.86-.74,1.31-1.08l.34-.24c.26-.19.52-.37.79-.54.07-.12.15-.24.22-.36-.58.31-1.18.68-1.84,1.14l-.38-.54c1.09-.75,2.04-1.29,2.97-1.69.05-.07.1-.14.15-.21-.18.05-.36.11-.54.18-.53.18-1.07.4-1.67.7l-.29-.59c.62-.31,1.19-.54,1.73-.73.51-.19,1.03-.34,1.5-.45.02-.02.03-.04.05-.07.03-.04.07-.07.1-.11-.74.06-1.51.17-2.29.35l-.15-.64c1.06-.24,2.1-.37,3.1-.4.12-.12.24-.24.37-.35-.79-.08-1.62-.09-2.49-.04l-.03-.66c1.12-.06,2.2-.02,3.2.12.15-.12.3-.24.46-.36-.27-.04-.55-.09-.85-.12-.57-.06-1.18-.09-1.83-.09v-.66c.67,0,1.3.04,1.9.09.55.07,1.06.16,1.53.25.12-.08.24-.16.36-.23-.81-.25-1.65-.42-2.5-.52l.08-.65c.24.03.48.06.72.1l.2.15s.05-.07.08-.1c.75.14,1.48.34,2.19.58.1-.05.19-.11.29-.16-.68-.34-1.34-.6-1.95-.79l.13-.41c.06-.06.12-.12.18-.18.1.03.21.07.32.11-.13.14-.25.27-.37.42l.59.33c.15-.17.29-.34.45-.49.08.03.16.07.25.1h0s.56.42.56.42c.04-.04.07-.07.11-.11.16.08.33.17.49.25.1-.04.2-.09.3-.13-.18-.13-.37-.25-.55-.36.17-.16.34-.3.52-.45.26.16.52.34.78.53.2-.07.46-.14.74-.21.18-.04.36-.09.53-.13.37.22.73.44,1.02.61"/><path class="cls-1" d="M248.13,44.06c-.18.15-.36.31-.53.46-.07-.04-.14-.08-.21-.12l.03-.05c.15-.14.31-.28.47-.42.08.04.16.09.24.13"/><path class="cls-1" d="M251.82,44.41v.83s-.01-.81-.01-.81h0s0-.02,0-.02h0Z"/><path class="cls-1" d="M269.63,47.3c.25.29.5.59.74.89l-.65.51c-.24-.31-.49-.61-.75-.9.08.22.14.45.21.68l-.63.18c-.2-.7-.45-1.39-.75-2.05-.12-.11-.24-.22-.36-.32.21.45.41.9.58,1.38l-.62.22c-.32-.91-.74-1.78-1.25-2.58-.09-.06-.17-.11-.26-.17.29.49.54.99.77,1.52l-.61.26c-.37-.88-.85-1.71-1.42-2.49-.12-.06-.24-.11-.36-.17.41.58.78,1.19,1.09,1.82l-.6.28c-.44-.93-1.02-1.8-1.71-2.6-.08-.03-.16-.06-.25-.08.48.63.9,1.29,1.23,1.99l-.59.28c-.44-.92-1.03-1.79-1.74-2.58-.01,0-.02,0-.04,0-.05-.01-.11-.02-.17-.04.46.64.85,1.31,1.15,1.99l-.6.27c-.37-.83-.88-1.64-1.5-2.42-.15-.02-.31-.04-.47-.05.51.68.95,1.38,1.29,2.1l-.6.28c-.4-.84-.93-1.66-1.58-2.43-.19,0-.37,0-.56,0,.63.63,1.18,1.31,1.64,2.04l-.56.35c-.54-.85-1.21-1.63-1.99-2.34-.14.01-.27.03-.41.05.65.56,1.23,1.17,1.72,1.83l-.33.25-.2.15s-.05-.07-.08-.1c-.21-.27-.43-.53-.67-.78-.06-.06-.11-.12-.17-.18-.36-.36-.74-.7-1.15-1.02-.1.02-.2.04-.31.06.41.34.79.7,1.14,1.07.13.14.25.27.37.42l-.6.33c-.14-.17-.29-.33-.45-.49-.11-.12-.23-.24-.35-.35-.15-.15-.32-.29-.48-.43-.14-.12-.29-.24-.44-.36-.1.03-.2.06-.3.08.17.13.34.27.51.4.18.15.36.3.53.46.1.1.2.19.3.29t0,0l-.55.42s-.07-.07-.11-.11c-.08-.08-.16-.16-.25-.24-.17-.16-.34-.31-.52-.45-.22-.18-.44-.36-.66-.52-.3.11-.65.29-1.01.5-.13.07-.26.15-.38.22-.15.09-.29.17-.43.26-.22.13-.41.25-.59.35v-.81s.01-.01.01-.01v-.11s.01,0,.02,0c.13-.08.26-.16.39-.24.22-.13.44-.27.65-.4.09-.05.17-.1.25-.15.2-.11.41-.21.62-.3h0c.46.03.95.08,1.46.14l.08-.66c-.06,0-.11-.01-.17-.02.02-.05.04-.1.07-.14.3.03.61.07.92.12v-.14c.06,0,.1-.01.14-.02.13-.21.28-.42.43-.63.11.02.22.04.34.06l.12-.65c.04-.06.09-.11.14-.16.16.03.32.06.47.1l.16-.64s-.07-.01-.1-.02c.04-.05.09-.09.14-.13.13.04.26.08.39.12l.21-.63.37.48c-.66.61-1.25,1.27-1.75,1.97.16-.02.33-.04.49-.05.76-.88,1.65-1.68,2.65-2.38l.37.54c-.77.53-1.47,1.13-2.09,1.78.21,0,.43,0,.64,0,.8-.76,1.68-1.44,2.65-2l.33.57c-.73.43-1.43.93-2.07,1.49.19.02.37.04.56.06.91-.6,1.89-1.09,2.91-1.45l.22.62c-.75.26-1.47.6-2.15,1,.05.01.1.02.16.03.04,0,.07.02.11.02,1.1-.4,2.27-.68,3.51-.79l.06.66c-.83.08-1.64.23-2.41.45.09.03.18.06.27.1,1.15-.18,2.35-.22,3.57-.1l-.06.66c-.76-.07-1.5-.08-2.22-.04.14.06.27.13.41.2,1.04.02,2.1.16,3.18.42l-.16.64c-.58-.14-1.15-.24-1.71-.31.08.05.15.1.23.15.02.02.05.04.08.05,1,.2,2.01.51,3.01.94l-.26.61c-.47-.2-.95-.37-1.42-.52.13.11.26.23.39.35.72.27,1.43.59,2.13.97l-.32.58c-.2-.11-.4-.21-.59-.31"/><path class="cls-1" d="M251.4,43.54v.5c-.22-.13-.44-.26-.66-.39-.09-.05-.18-.1-.27-.15h0c-.05-.11-.11-.21-.18-.32-.14,0-.29.01-.43.02h0c-.46.03-.95.08-1.46.14l-.08-.66c.06,0,.11-.01.17-.02.11-.01.21-.02.32-.03.23-.02.45-.04.67-.06.15-.01.29-.02.43-.03-.03-.04-.05-.08-.08-.12-.13,0-.26.01-.39.02-.22,0-.45.03-.68.05-.11.01-.23.02-.34.04-.3.03-.61.07-.92.12v-.14s-.06-.49-.06-.49v-.04c.22-.04.45-.07.67-.1.14-.02.28-.04.41-.04.23-.03.46-.04.69-.06.06,0,.12,0,.19-.01-.03-.04-.05-.08-.09-.12-.05,0-.1,0-.15,0-.23,0-.46.01-.7.03-.14,0-.28.02-.42.03,0,0-.02,0-.02,0-.25.02-.48.04-.71.08-.13.02-.27.04-.4.06-.11.02-.22.04-.33.06l-.12-.62h0s0-.03,0-.03c.16-.03.32-.06.48-.08.23-.04.47-.07.72-.09.11,0,.21-.02.33-.03.28-.03.56-.05.83-.06-.04-.06-.09-.12-.14-.18-.38.02-.75.05-1.12.09-.24.03-.48.06-.72.1-.18.03-.35.06-.53.1-.15.03-.3.06-.45.1l-.16-.64s.05-.01.08-.02c.74-.17,1.53-.29,2.34-.35-.08-.09-.15-.17-.23-.26-.81.12-1.55.27-2.24.48-.12.03-.25.07-.37.11l-.21-.63c.7-.23,1.44-.41,2.24-.55-.07-.07-.13-.14-.2-.2-.88.12-1.72.3-2.51.55l-.2-.63c.65-.21,1.34-.37,2.05-.49-.02-.02-.04-.04-.06-.06-.95.04-1.85.17-2.68.4l-.17-.64c.65-.18,1.34-.29,2.06-.37-.04-.02-.08-.04-.11-.07-1.02.03-1.86.13-2.62.33l-.16-.64c.56-.15,1.16-.24,1.83-.3-.07-.04-.15-.08-.22-.12-.76.04-1.54.16-2.35.37l-.17-.64c.48-.12.96-.22,1.42-.29-.06-.02-.11-.05-.16-.08-.82.09-1.6.24-2.3.47l-.2-.63c.39-.12.8-.23,1.22-.32-.1-.04-.2-.07-.31-.1-.22.05-.47.11-.77.2-.3.08-.6.18-.91.31l-.25-.61c.2-.08.4-.15.61-.22-.3-.05-.6-.1-.89-.13l.09-.82c.3.03.6.08.89.13-.15-.11-.3-.22-.46-.33l.37-.55c.31.21.62.44.9.68.18.15.4.33.62.54.11.03.23.07.34.1-.3-.31-.61-.6-.94-.87l.42-.51c.66.55,1.27,1.18,1.84,1.87.07.03.15.07.22.1-.27-.39-.57-.78-.92-1.19l.5-.43c.64.75,1.14,1.46,1.55,2.18.08.05.17.1.25.15-.29-.61-.59-1.16-.92-1.66l.55-.37c.52.77.97,1.65,1.37,2.66.05.03.09.06.13.09-.18-.7-.41-1.38-.69-2.03l.61-.26c.4.93.7,1.91.91,2.92.01.01.02.02.03.03.02.02.05.04.07.06-.03-.72-.1-1.43-.22-2.13l.65-.11c.16.93.24,1.88.24,2.83.08.08.16.16.24.24.09-.79.14-1.57.12-2.33h.66c.02.93-.05,1.92-.19,2.91.09.1.18.2.27.3.14-.82.22-1.65.24-2.48h.66c-.02,1.05-.14,2.09-.35,3.12.06.07.12.14.18.22.07-.25.13-.51.19-.79.11-.52.2-.98.26-1.43l.54.86c-.02.12-.05.25-.08.39l-.17-.27-.49.31.48.76c-.07.28-.14.55-.22.81.04.05.08.1.11.16.09-.23.19-.46.28-.7l.44.7c-.09.22-.18.44-.27.65.03.05.07.1.1.16.1-.19.21-.38.32-.58l.44.7-.32.74h0c.14.24.26.41.36.57"/><path class="cls-1" d="M251.4,42.28v1.25c-.11-.16-.23-.33-.36-.57h0s.32-.75.32-.75l.02.03.02.03Z"/><path class="cls-1" d="M252.55,42.88c-.12.22-.23.38-.32.55v-1.1l.03-.04h0s.02-.03.02-.03l.27.62Z"/><polygon class="cls-1" points="253.79 45.74 253.49 49.13 250.34 49.13 249.83 45.74 251.81 44.41 253.79 45.74"/><polygon class="cls-1" points="254.23 63.02 253.5 66.49 250.33 66.49 249.6 63.02 254.23 63.02"/><path class="cls-1" d="M254.23,66.49l-.54,2.23c-.07.04-.14.1-.2.15-.5.37-.99.74-1.47,1.13-.55-.44-1.12-.87-1.68-1.29-.08-.06-.17-.12-.24-.17h0l-.49-2.05h4.63Z"/><polygon class="cls-1" points="254.23 56.07 253.49 59.54 250.34 59.54 249.6 56.07 254.23 56.07"/><polygon class="cls-1" points="254.23 52.6 253.49 56.07 250.34 56.07 249.6 52.6 254.23 52.6"/><polygon class="cls-1" points="254.23 49.13 253.49 52.6 250.34 52.6 249.6 49.13 254.23 49.13"/><path class="cls-1" d="M285.2,76.69c-.09.12-.18.23-.28.34-.48.61-.99,1.2-1.51,1.79-.03.03-.06.07-.1.1-1.49-1.74-5.97-5.86-14.07-3.86-1.93.48-3.94,1.87-6.2,3.6-.44.34-.89.69-1.36,1.05-.35.27-.71.55-1.07.82-1.63,1.25-3.38,2.56-5.32,3.75-1.04.63-2.12,1.23-3.27,1.77-3.26,1.55-7.02,2.61-11.45,2.61-2.93,0-6.16-.46-9.74-1.57-1.47-.86-2.88-1.8-4.23-2.83h0c-1.67-1.28-3.23-2.66-4.69-4.17h0c3.8,2.09,7.23,3.51,10.35,4.41,6.75,1.94,12.05,1.42,16.47-.21h0c1.14-.43,2.23-.93,3.26-1.48,2.23-1.18,4.24-2.6,6.11-4.02.61-.46,1.2-.92,1.79-1.37.2-.15.4-.31.59-.46,2.83-2.19,5.33-4.04,8.05-4.71,4.15-1.02,7.52-.65,10.09.22,1.3.42,2.4.97,3.29,1.52.64.4,1.22.82,1.72,1.24.63.51,1.14,1.02,1.55,1.46"/><path class="cls-1" d="M282.16,80.16c-1.43,1.47-2.96,2.83-4.6,4.07-1.32,1.01-2.71,1.96-4.16,2.81-3.66,1.15-6.96,1.63-9.94,1.63-4.43,0-8.18-1.06-11.44-2.61-1.15-.53-2.24-1.13-3.27-1.77h0c-1.95-1.19-3.71-2.51-5.34-3.76-.36-.27-.71-.55-1.06-.82-.46-.36-.92-.71-1.36-1.05-2.26-1.73-4.28-3.12-6.2-3.6-8.02-1.98-12.5,2.03-14.03,3.8-.03-.04-.07-.08-.1-.12-.5-.56-.99-1.13-1.45-1.72-.1-.13-.21-.26-.31-.39.43-.46.97-.97,1.63-1.49,1.21-.98,2.83-1.99,4.85-2.67,2.65-.89,6.01-1.24,10.1-.23,2.71.68,5.21,2.52,8.05,4.71.2.15.4.3.59.46.58.46,1.18.91,1.79,1.37,1.87,1.43,3.87,2.84,6.11,4.03,1.04.55,2.13,1.05,3.28,1.48,4.42,1.63,9.72,2.16,16.47.21,3.13-.89,6.56-2.32,10.36-4.41l.04.07Z"/><path class="cls-1" d="M252.02,70c-.44.34-.88.71-1.31,1.06h-.01s0,0,0,0c-.33.28-.64.55-.97.82-3.29-2.58-6.68-4.64-10.81-5.14-5.68-.7-10.31,2.41-13.53,5.74-2.39,2.46-4,5.02-4.73,6.27-.5-.56-.99-1.14-1.45-1.72-.1-.13-.21-.26-.31-.39-.07-.09-.14-.17-.2-.27.45-.74,1.05-1.64,1.79-2.63.76-1.03,1.68-2.15,2.76-3.26.54-.57,1.1-1.09,1.66-1.59.93-.83,1.89-1.55,2.86-2.17,3-1.95,6.18-2.95,9.4-2.98.7-.02,1.4.03,2.11.11.26.04.52.07.77.11,3.84.64,7.07,2.4,10.05,4.57h0c.08.05.16.11.24.17.57.42,1.13.85,1.68,1.29"/><path class="cls-1" d="M282.31,80c-.04.05-.09.11-.15.16-1.43,1.47-2.96,2.83-4.6,4.07-1.42.24-2.76.34-4.04.34-.6,0-1.18-.03-1.76-.07-4.34-.34-7.94-1.91-11.14-3.97-.86-.55-1.69-1.14-2.49-1.74-1.63-1.23-3.17-2.53-4.67-3.81-.48-.41-.96-.82-1.44-1.23.76-.64,1.52-1.27,2.28-1.86.34.29.7.59,1.04.88,1.71,1.46,3.4,2.9,5.16,4.19.82.61,1.67,1.18,2.54,1.7,5,2.99,10.81,4.36,19.26,1.33"/><path class="cls-1" d="M220.48,73.75c-.74.99-1.34,1.89-1.79,2.63-.38-.47-.73-.96-1.07-1.45,0,0,0-.02,0-.03-.04-1.87-.17-4.04-.28-6.14-.15-2.68-.3-5.21-.3-7.18,0-4.49-.49-6.29-6.84-6.49-.1-.95-.16-1.92-.19-2.9.96.04,1.83.1,2.61.22,1.19.17,2.2.43,3.03.77,3.86,1.56,4.28,4.77,4.28,8.39,0,1.89.14,4.38.29,7.02.1,1.74.2,3.51.26,5.15"/><path class="cls-1" d="M227.76,66.73c-.97.63-1.92,1.35-2.86,2.17-.07-2.12-.03-6.22-.07-7.23-.1-3.68-1.47-7.27-3.85-10.11-1.4-1.66-2.45-2.61-3.15-3.12-.48-.35-1.15-.23-1.48.26-.51.75-1.1,2.09-.7,4.5-.83-.34-1.84-.6-3.03-.77-.39-4.27,1.35-6.39,3.03-7.19,1.27-.6,2.8-.13,4.68,1.49.63.53,1.3,1.19,2.01,1.98.28.31.57.64.86.99.51.6.97,1.23,1.4,1.89.53.82,1.01,1.68,1.4,2.57,1.07,2.33,1.66,4.86,1.74,7.43.03.77,0,3.13.03,5.14"/><path class="cls-1" d="M240.04,63.97c-.26-.04-.52-.08-.77-.11-.7-.09-1.41-.13-2.1-.11.29-2.42-.41-2.54-1.92-2.81-1.28-.23-3.22-.57-3.8-2.8-.47-1.84-1.04-3.68-2.25-4.27-.75-.36-1.82-.27-3.2.28-.4-.89-.87-1.75-1.4-2.57,2.34-.99,4.26-1.09,5.86-.33,2.53,1.2,3.33,4.3,3.81,6.16.08.31.17.43,1.49.66,1.7.3,4.76.84,4.29,5.89"/><path class="cls-1" d="M285.38,76.45c-.05.09-.12.16-.18.24-.1.12-.18.23-.28.34-.48.61-.99,1.2-1.51,1.79-.7-1.21-2.34-3.84-4.77-6.35-3.23-3.32-7.85-6.43-13.53-5.73-4.13.51-7.52,2.57-10.81,5.14-.77.59-1.53,1.22-2.29,1.86-.48.4-.96.82-1.45,1.23-1.49,1.27-3.03,2.59-4.66,3.8-.81.61-1.64,1.2-2.51,1.74-3.2,2.07-6.8,3.64-11.13,3.98-.57.04-1.15.07-1.75.07-1.25,0-2.54-.09-3.91-.31h0c-1.67-1.28-3.23-2.66-4.69-4.17l-.04-.04c8.38,2.95,14.15,1.58,19.12-1.39.87-.52,1.71-1.1,2.54-1.7,1.76-1.29,3.45-2.73,5.16-4.19.34-.29.7-.59,1.04-.88.33-.28.64-.54.97-.82h0s.01-.01.01-.01c.43-.35.87-.71,1.3-1.06.48-.39.97-.76,1.47-1.13.06-.05.13-.1.2-.15,3.09-2.28,6.44-4.14,10.45-4.78.21-.03.41-.06.62-.09.76-.09,1.51-.13,2.26-.11,3.23.05,6.4,1.09,9.4,3.07.97.64,1.92,1.37,2.85,2.21.52.45,1.02.95,1.52,1.46,1.14,1.17,2.1,2.36,2.89,3.44.7.95,1.26,1.81,1.69,2.52"/><path class="cls-1" d="M294.12,52.19c-.03.98-.1,1.95-.19,2.9-6.3.21-6.79,2.01-6.79,6.48,0,1.98-.15,4.5-.3,7.18-.11,2.09-.23,4.22-.28,6.09t0,.02s0,0,0,.02t0,.02s0,0,0,.02c-.38.54-.76,1-1.18,1.53-.43-.71-1-1.57-1.69-2.52.06-1.69.16-3.53.27-5.33.15-2.64.29-5.13.29-7.02,0-3.62.43-6.83,4.29-8.38.83-.35,1.84-.61,3.03-.78.77-.11,1.62-.19,2.56-.22"/><path class="cls-1" d="M279.58,51.58c-.53.82-1.01,1.68-1.4,2.57-1.38-.55-2.46-.64-3.2-.28-1.21.58-1.78,2.43-2.25,4.27-.58,2.22-2.52,2.57-3.8,2.8-1.5.27-2.21.39-1.91,2.81-.75-.02-1.5.02-2.26.11-.21.03-.41.05-.62.09-.45-5.02,2.59-5.57,4.29-5.87,1.31-.23,1.41-.35,1.49-.66.47-1.85,1.27-4.96,3.8-6.16,1.6-.76,3.52-.66,5.86.33"/><path class="cls-1" d="M291.56,52.42c-1.19.17-2.2.43-3.03.78.4-2.4-.19-3.75-.7-4.51-.33-.49-1.01-.6-1.48-.26-.71.51-1.76,1.46-3.16,3.13-2.37,2.83-3.74,6.43-3.85,10.11-.03,1.04,0,5.28-.08,7.36-.94-.84-1.88-1.57-2.85-2.21.03-2.03,0-4.46.03-5.24.08-2.57.67-5.1,1.73-7.43.4-.89.87-1.75,1.4-2.57.43-.66.89-1.29,1.4-1.89.13-.15.25-.29.37-.44.7-.82,1.37-1.51,1.99-2.09,2.12-1.98,3.8-2.59,5.19-1.94,1.68.8,3.42,2.92,3.03,7.19"/><path class="cls-1" d="M252.06,0c-28,0-50.79,22.78-50.79,50.79s22.79,50.78,50.79,50.78,50.78-22.78,50.78-50.78S280.06,0,252.06,0M301.54,50.98s-.37.14-.72.62c-.35.47-.66,1.12-1.32,1.08-.46-.03-1.05-.55-1.43-.94-.23-.23-.55-.36-.88-.36h-.33s0,.35-.51.35-.5-.58-.5-.76c0-.16,0-.75.5-.75s.51.35.51.35h.33c.33,0,.65-.13.88-.37.38-.38.97-.9,1.43-.93.66-.03.97.61,1.32,1.08.35.48.72.61.72.61M300.68,47.34c-.31.51-.56,1.18-1.22,1.19-.46.02-1.09-.46-1.5-.81-.25-.21-.57-.32-.91-.28l-.33.02s.02.35-.47.4c-.5.04-.55-.54-.56-.7-.02-.16-.07-.75.43-.79.49-.04.53.31.53.31l.33-.03c.34-.03.64-.19.85-.44.34-.41.89-.99,1.34-1.06.65-.09,1.01.52,1.41.97.39.44.77.54.77.54,0,0-.36.17-.67.68M300.8,42.38s-.34.2-.61.73c-.27.53-.46,1.22-1.12,1.3-.45.05-1.12-.36-1.56-.67-.28-.19-.61-.27-.94-.21l-.32.05s.04.35-.45.44c-.48.09-.58-.49-.62-.65-.02-.16-.13-.74.36-.82.49-.09.57.26.57.26l.32-.06c.33-.05.62-.24.81-.51.31-.44.8-1.06,1.24-1.16.64-.15,1.06.43,1.49.83.43.41.83.48.83.48M299.86,38.15s-.33.23-.55.78c-.21.55-.34,1.25-.99,1.39-.45.09-1.16-.27-1.62-.53-.28-.17-.63-.21-.95-.13l-.31.09s.08.34-.4.47c-.47.13-.63-.44-.67-.59-.04-.16-.2-.73.28-.86.48-.13.58.21.58.21l.32-.09c.32-.09.59-.3.76-.58.27-.46.7-1.13,1.13-1.27.63-.21,1.09.33,1.55.7.47.37.87.4.87.4M298.55,34.03s-.3.25-.47.82c-.17.57-.23,1.28-.87,1.47-.44.13-1.17-.16-1.66-.39-.3-.15-.64-.15-.96-.04l-.3.11s.1.34-.36.51c-.46.17-.67-.39-.72-.54-.06-.15-.26-.7.21-.88.46-.17.6.16.6.16l.31-.11c.31-.11.56-.35.71-.65.22-.48.6-1.18,1.02-1.36.6-.27,1.12.24,1.61.57.5.33.89.33.89.33M220.76,78.87s-.07-.08-.1-.12c-.5-.56-.99-1.13-1.45-1.72-.1-.13-.21-.26-.31-.39-.07-.09-.14-.17-.2-.27-.38-.47-.73-.96-1.07-1.45,0,0,0-.02,0-.03-4.03-5.73-6.66-12.48-7.42-19.81-.09-.95-.16-1.92-.19-2.9-.02-.46-.03-.94-.03-1.41,0-22.89,18.36-41.57,41.14-42.07.31-.02.63-.02.94-.02.16,0,.33,0,.5,0,22.98.27,41.59,19.03,41.59,42.08,0,.47,0,.94-.03,1.41-.02.98-.09,1.95-.19,2.9-.76,7.3-3.37,14.04-7.37,19.75v.05s0,0,0,.02c-.38.54-.77,1.01-1.18,1.53-.05.09-.12.16-.18.24-.1.12-.18.23-.28.34-.48.61-.99,1.2-1.51,1.79-.03.04-.06.07-.09.1-.33.36-.65.72-1,1.07h0c-.04.05-.1.11-.16.16-1.43,1.47-2.96,2.83-4.59,4.07-1.32,1.01-2.71,1.96-4.17,2.81-6.26,3.7-13.55,5.82-21.33,5.82s-15-2.1-21.23-5.76c-1.47-.86-2.88-1.8-4.23-2.83h0c-1.67-1.28-3.23-2.66-4.69-4.17l-.04-.04h0c-.39-.39-.75-.78-1.11-1.18M296.9,30.03s-.27.28-.39.87c-.12.58-.13,1.3-.74,1.54-.42.17-1.18-.06-1.68-.24-.32-.11-.66-.1-.96.04l-.29.14s.14.33-.32.53c-.45.21-.7-.32-.76-.47-.07-.15-.32-.68.13-.89.46-.21.62.1.62.1l.29-.14c.3-.14.53-.4.64-.71.19-.51.5-1.24.9-1.45.58-.31,1.13.15,1.66.43.52.28.91.24.91.24M293.97,26.02c.54.24.94.17.94.17,0,0-.26.3-.33.89-.07.58,0,1.3-.6,1.6-.4.21-1.18.04-1.7-.09-.32-.09-.66-.04-.94.12l-.28.16s.16.32-.27.57c-.43.25-.72-.27-.81-.4-.08-.15-.38-.65.05-.9.43-.25.63.05.63.05l.27-.16c.29-.16.5-.44.58-.76.15-.52.39-1.27.77-1.52.55-.36,1.13.04,1.68.27M291.63,22.46c.57.19.94.09.94.09,0,0-.22.33-.24.92-.02.59.1,1.3-.46,1.65-.38.23-1.17.15-1.7.05-.33-.06-.66.02-.94.21l-.27.18s.2.3-.21.58c-.4.29-.74-.19-.83-.33-.09-.14-.44-.62-.03-.9.4-.28.62,0,.62,0l.27-.19c.28-.19.46-.48.52-.81.09-.53.27-1.31.64-1.58.52-.41,1.13-.06,1.7.13M289,19.11c.58.14.95,0,.95,0,0,0-.21.34-.16.94.03.59.21,1.29-.32,1.68-.36.28-1.15.25-1.69.2-.33-.03-.66.08-.91.29l-.25.21s.22.28-.16.6c-.38.32-.76-.13-.87-.26-.1-.13-.48-.57-.1-.89.38-.32.62-.06.62-.06l.25-.21c.26-.21.41-.52.45-.85.04-.53.16-1.32.49-1.63.48-.46,1.13-.15,1.71-.02M286.08,16c.52.08.87-.05.94-.07-.02.07-.15.41-.07.94.09.59.33,1.26-.16,1.7-.34.3-1.13.35-1.68.35-.33,0-.64.13-.88.36l-.22.23s.24.27-.11.61c-.35.35-.77-.06-.89-.18-.12-.11-.53-.53-.18-.88.35-.34.61-.1.61-.1l.23-.23c.23-.23.37-.55.37-.88,0-.54.04-1.33.34-1.67.44-.5,1.12-.26,1.7-.17M281.21,13.48c.4-.52,1.09-.34,1.68-.31.59.03.94-.16.94-.16,0,0-.14.37,0,.95.14.58.44,1.23-.02,1.71-.31.33-1.09.45-1.63.5-.33.03-.64.18-.85.44l-.21.25s.27.24-.06.62c-.32.38-.76,0-.89-.1-.12-.1-.58-.48-.26-.87.32-.38.6-.15.6-.15l.21-.25c.22-.26.32-.58.29-.92-.04-.53-.07-1.33.2-1.69M277.57,13.71c.2-.28.27-.61.22-.94-.1-.53-.19-1.31.05-1.7.34-.56,1.05-.45,1.64-.45.6-.02.92-.25.92-.25,0,0-.1.39.09.94.19.57.54,1.19.14,1.71-.28.35-1.06.53-1.59.63-.33.06-.62.24-.81.52l-.18.27s.28.21,0,.63c-.28.4-.77.07-.89-.03-.14-.1-.62-.44-.34-.84.28-.4.58-.21.58-.21l.18-.27ZM274.07,11.9l.16-.27c.16-.29.21-.64.12-.95-.14-.52-.3-1.3-.09-1.7.3-.59,1.01-.53,1.6-.6.59-.07.9-.33.9-.33,0,0-.08.39.16.94.23.55.64,1.13.28,1.69-.25.38-1.01.63-1.52.76-.33.09-.6.29-.76.58l-.16.28s.3.19.05.62c-.25.43-.76.14-.9.05-.14-.08-.64-.38-.4-.81.25-.43.57-.27.57-.27M270.04,10.44c.21-.46.54-.32.54-.32l.14-.29c.14-.3.16-.64.03-.95-.18-.51-.41-1.27-.24-1.69.25-.61.96-.62,1.54-.74.58-.11.87-.39.87-.39,0,0-.04.39.25.92.28.52.74,1.07.42,1.65-.22.4-.94.71-1.44.9-.32.11-.57.34-.71.64l-.14.29s.32.16.11.62c-.22.45-.75.2-.89.13-.15-.07-.68-.32-.47-.76M266.43,9.01c.17-.46.52-.35.52-.35l.1-.31c.12-.31.1-.65-.03-.96-.23-.48-.52-1.22-.4-1.66.2-.63.9-.7,1.48-.87.57-.16.82-.47.82-.47,0,0,0,.39.34.89.33.5.83,1,.57,1.61-.18.41-.88.79-1.36,1.01-.3.15-.53.4-.65.71l-.11.3s.33.14.16.6c-.17.46-.72.27-.88.21-.15-.05-.7-.26-.54-.72M264.01,3.63c.56-.21.78-.54.78-.54,0,0,.03.4.4.86.37.46.91.93.71,1.55-.14.43-.8.87-1.27,1.13-.28.17-.5.44-.58.76l-.08.31s.33.1.21.58c-.13.48-.7.33-.85.28-.16-.04-.73-.19-.6-.67.13-.48.47-.4.47-.4l.09-.31c.09-.33.04-.66-.13-.95-.27-.46-.62-1.18-.53-1.61.14-.65.84-.78,1.39-1M259.84,2.77c.53-.27.73-.61.73-.61,0,0,.07.39.48.82.4.44.99.85.84,1.49-.1.44-.73.93-1.17,1.24-.27.19-.45.48-.52.81l-.06.32s.35.08.27.57c-.09.49-.67.39-.83.36-.16-.03-.74-.13-.65-.62.09-.49.44-.45.44-.45l.06-.32c.05-.33-.02-.66-.21-.94-.3-.44-.72-1.12-.67-1.56.08-.65.77-.85,1.3-1.11M255.61,2.26c.51-.31.67-.67.67-.67,0,0,.1.39.55.77.44.39,1.06.76.96,1.42-.06.45-.64.99-1.06,1.33-.25.21-.41.52-.44.85l-.02.33s.35.04.31.54c-.04.49-.64.44-.8.43-.16-.02-.75-.07-.7-.56.04-.46.35-.48.4-.48l.03-.33c.03-.33-.08-.65-.29-.91-.34-.41-.82-1.05-.81-1.5.03-.66.7-.91,1.2-1.22M251.35,2.13c.47-.36.61-.73.61-.73,0,0,.14.37.61.73.48.35,1.12.65,1.08,1.32-.02.45-.55,1.05-.93,1.42-.24.24-.37.56-.37.89v.33s.35.02.35.51-.58.5-.75.5-.76,0-.76-.5.36-.51.36-.51v-.33c0-.33-.14-.64-.37-.89-.38-.38-.91-.97-.94-1.42-.03-.66.61-.96,1.09-1.32M247.09,2.36c.45-.39.55-.77.55-.77,0,0,.16.36.67.67.51.31,1.18.56,1.19,1.22.02.45-.46,1.09-.8,1.5-.21.26-.32.58-.29.91l.03.33s.36-.02.4.48c.04.49-.54.54-.71.56-.16,0-.75.06-.79-.43-.04-.5.31-.54.31-.54l-.03-.33c-.03-.33-.19-.64-.45-.85-.41-.34-.99-.89-1.06-1.33-.09-.66.52-1.02.97-1.42M242.87,2.97c.4-.43.47-.82.47-.82,0,0,.2.34.73.61.53.26,1.22.46,1.3,1.11.06.45-.36,1.12-.67,1.56-.19.28-.27.61-.21.94l.05.32s.35-.04.45.45c.09.49-.5.58-.66.62-.16.03-.74.13-.82-.36-.09-.49.26-.57.26-.57l-.05-.32c-.06-.33-.25-.62-.52-.81-.45-.31-1.07-.8-1.17-1.24-.16-.64.43-1.06.84-1.49M238.73,3.95c.36-.46.4-.86.4-.86,0,0,.23.33.78.54.56.21,1.25.34,1.39,1,.09.44-.27,1.15-.53,1.61-.16.29-.22.63-.13.95l.09.31s.35-.08.48.4c.13.48-.45.63-.6.67-.16.04-.73.2-.86-.28-.13-.48.21-.58.21-.58l-.09-.31c-.09-.33-.29-.6-.58-.76-.46-.27-1.12-.7-1.27-1.13-.21-.63.34-1.09.71-1.55M234.67,5.28c.33-.5.33-.89.33-.89,0,0,.26.31.83.47.57.17,1.28.24,1.47.87.14.44-.16,1.18-.39,1.66-.14.31-.15.65-.04.96l.11.3s.34-.1.51.36c.17.46-.38.67-.53.72-.15.06-.71.26-.88-.21-.17-.46.15-.6.15-.6l-.11-.3c-.11-.32-.34-.57-.64-.71-.49-.22-1.18-.6-1.37-1.01-.26-.61.24-1.12.57-1.61M230.76,6.97c.28-.52.25-.92.25-.92,0,0,.28.28.86.39.58.12,1.3.13,1.55.74.16.42-.06,1.18-.25,1.69-.11.31-.09.65.04.95l.14.29s.33-.14.54.32c.21.45-.33.7-.47.76-.16.07-.69.32-.89-.13-.21-.45.1-.62.1-.62l-.14-.29c-.14-.3-.4-.53-.7-.64-.51-.19-1.24-.5-1.45-.9-.31-.57.15-1.12.43-1.65M227,8.98c.23-.54.16-.94.16-.94,0,0,.3.26.89.33.59.07,1.3,0,1.6.6.21.4.04,1.18-.09,1.7-.09.32-.04.66.13.95l.16.27s.31-.16.56.27c.25.43-.26.72-.4.81-.14.09-.65.38-.9-.05-.24-.43.06-.62.06-.62l-.16-.28c-.17-.29-.45-.5-.77-.58-.52-.14-1.27-.39-1.52-.76-.36-.56.04-1.14.28-1.69M223.43,11.31c.19-.56.09-.94.09-.94,0,0,.33.23.92.24.59.02,1.3-.1,1.65.46.24.39.15,1.17.05,1.7-.06.33.02.66.21.94l.19.27s.3-.19.58.21-.2.74-.34.84c-.14.09-.62.43-.9.03-.28-.41,0-.63,0-.63l-.19-.27c-.19-.27-.48-.45-.81-.52-.53-.09-1.3-.27-1.58-.63-.41-.52-.05-1.14.13-1.71M220.08,13.95c.14-.58,0-.95,0-.95,0,0,.34.2.94.16.59-.03,1.28-.21,1.67.31.28.36.25,1.16.21,1.69-.03.34.07.66.28.92l.21.25s.28-.22.6.15c.32.39-.13.76-.26.87-.12.1-.58.48-.89.1-.32-.38-.05-.62-.05-.62l-.22-.25c-.21-.26-.51-.41-.85-.44-.53-.05-1.31-.16-1.63-.5-.45-.48-.15-1.12-.02-1.71M216.9,15.93c.06.03.41.15.95.07.58-.09,1.25-.33,1.7.17.3.33.34,1.12.34,1.67,0,.33.13.65.37.88l.22.23s.27-.24.62.1c.35.35-.07.77-.18.88-.12.12-.53.53-.88.18-.35-.34-.11-.61-.11-.61l-.23-.23c-.23-.23-.55-.36-.88-.36-.53,0-1.33-.05-1.67-.35-.49-.44-.25-1.11-.16-1.7.08-.52-.05-.87-.08-.94M214.93,19.11c.58-.14,1.23-.44,1.71.02.33.31.44,1.09.49,1.63.03.34.19.64.44.85l.25.21s.24-.26.62.06c.39.32,0,.76-.1.89-.1.13-.48.58-.86.26-.38-.32-.16-.6-.16-.6l-.25-.21c-.26-.21-.58-.32-.92-.29-.53.05-1.32.08-1.68-.2-.53-.39-.35-1.09-.32-1.68.04-.59-.16-.94-.16-.94,0,0,.37.14.95,0M212.29,22.46c.56-.19,1.18-.54,1.7-.13.35.27.54,1.05.64,1.58.05.33.24.62.52.81l.26.19s.22-.28.63,0c.4.28.07.76-.03.9-.09.13-.43.62-.84.33-.4-.28-.21-.58-.21-.58l-.26-.18c-.27-.19-.61-.27-.94-.21-.52.09-1.31.18-1.7-.06-.56-.34-.44-1.05-.46-1.64-.02-.59-.25-.92-.25-.92,0,0,.39.1.95-.09M209.95,26.02c.54-.23,1.13-.63,1.68-.27.38.25.63,1,.76,1.52.09.32.3.59.59.76l.28.16s.19-.3.62-.05c.43.25.14.76.05.9-.08.15-.38.65-.81.4-.43-.25-.26-.57-.26-.57l-.28-.16c-.29-.16-.63-.21-.95-.12-.52.14-1.3.3-1.7.09-.58-.3-.53-1.01-.6-1.6-.06-.59-.32-.89-.32-.89,0,0,.39.07.94-.17M207.93,29.79c.52-.28,1.07-.74,1.66-.43.39.21.71.94.89,1.45.11.31.34.57.65.71l.29.14s.16-.32.61-.1c.45.21.21.74.13.89-.07.15-.32.69-.76.47-.45-.21-.31-.53-.31-.53l-.29-.14c-.31-.15-.65-.15-.96-.04-.51.18-1.26.41-1.68.24-.62-.24-.62-.95-.74-1.54s-.4-.87-.4-.87c0,0,.4.04.92-.24M206.25,33.7c.5-.33,1.01-.83,1.61-.57.42.17.79.88,1.02,1.36.14.3.4.54.7.65l.31.11s.13-.34.6-.16c.46.17.26.72.21.88-.06.15-.26.71-.72.54-.47-.17-.36-.51-.36-.51l-.31-.11c-.31-.11-.65-.1-.95.04-.49.22-1.23.51-1.66.39-.64-.19-.7-.9-.87-1.47-.17-.58-.48-.82-.48-.82,0,0,.4,0,.89-.33M204.92,37.75c.46-.37.93-.91,1.55-.7.43.14.87.81,1.13,1.27.17.28.45.5.76.58l.31.09s.11-.34.59-.21c.47.13.33.7.28.86-.04.15-.2.72-.68.59-.48-.13-.4-.47-.4-.47l-.32-.09c-.32-.09-.66-.04-.95.13-.46.27-1.17.63-1.61.53-.64-.14-.77-.84-1-1.39-.22-.55-.54-.78-.54-.78,0,0,.4-.04.86-.4M203.95,41.9c.43-.4.84-.99,1.49-.83.44.1.94.72,1.24,1.16.2.27.48.46.82.51l.32.06s.08-.34.57-.26c.48.09.39.66.35.82-.03.16-.13.74-.62.65-.49-.09-.44-.44-.44-.44l-.32-.05c-.34-.06-.67.02-.94.21-.45.31-1.12.72-1.57.67-.65-.08-.84-.76-1.11-1.3-.27-.53-.61-.73-.61-.73,0,0,.39-.07.82-.48M203.34,46.12c.4-.45.76-1.07,1.41-.97.45.07.99.65,1.34,1.06.21.25.52.41.85.44l.32.03s.05-.35.54-.31c.5.04.45.63.43.79-.02.16-.07.75-.56.7-.46-.04-.48-.35-.48-.4l-.32-.02c-.33-.04-.66.07-.92.28-.41.34-1.05.83-1.5.81-.66-.02-.9-.69-1.22-1.19-.31-.51-.67-.68-.67-.68,0,0,.39-.1.78-.54M203.1,50.37c.35-.47.66-1.12,1.32-1.08.45.03,1.04.55,1.42.93.24.24.56.37.89.37h.32s.02-.35.51-.35.5.58.5.75c0,.17,0,.76-.5.76s-.51-.35-.51-.35h-.32c-.34,0-.65.13-.89.37-.38.38-.97.9-1.42.93-.66.03-.97-.61-1.32-1.08-.35-.48-.73-.62-.73-.62,0,0,.38-.13.73-.61M203.23,54.63c.32-.51.56-1.18,1.22-1.19.46-.02,1.09.46,1.5.81.26.21.58.32.92.28l.32-.02s.02-.35.48-.4c.49-.04.54.54.56.7.02.16.07.75-.43.79-.49.04-.54-.31-.54-.31l-.32.03c-.34.03-.64.18-.85.44-.35.41-.89.99-1.34,1.06-.65.09-1.01-.52-1.41-.97-.4-.44-.78-.54-.78-.54,0,0,.36-.17.67-.68M203.13,59.6s.34-.2.61-.73c.27-.53.45-1.22,1.11-1.3.46-.05,1.13.36,1.57.67.27.19.6.27.94.21l.32-.05s-.05-.35.44-.44c.49-.09.59.49.62.65.03.16.13.74-.35.82-.49.09-.57-.26-.57-.26l-.32.05c-.34.06-.62.25-.82.52-.3.44-.8,1.06-1.24,1.16-.64.15-1.06-.43-1.49-.83-.44-.41-.82-.48-.82-.48M204.06,63.82s.33-.23.54-.78c.22-.55.35-1.25,1-1.39.45-.09,1.15.27,1.61.53.29.16.64.22.95.13l.32-.09s-.09-.34.4-.47c.48-.13.64.44.68.59.04.16.19.73-.28.86-.48.13-.59-.21-.59-.21l-.31.09c-.32.09-.59.3-.76.58-.27.46-.7,1.13-1.13,1.27-.63.21-1.09-.33-1.55-.7-.46-.37-.86-.4-.86-.4M205.36,67.95s.31-.26.48-.82c.16-.57.23-1.28.87-1.47.43-.13,1.17.16,1.66.39.3.15.64.15.95.04l.31-.11s-.11-.34.36-.51c.46-.17.66.38.72.54.05.15.26.7-.22.88-.46.16-.6-.16-.6-.16l-.3.11c-.31.11-.57.34-.7.64-.23.49-.61,1.19-1.02,1.37-.61.27-1.12-.24-1.61-.57-.49-.33-.89-.33-.89-.33M207.02,71.94s.28-.27.4-.86.12-1.3.74-1.54c.42-.17,1.18.05,1.68.24.31.11.65.09.96-.04l.29-.14s-.14-.33.31-.54c.45-.21.7.33.76.47.08.15.32.69-.13.89-.45.21-.61-.1-.61-.1l-.29.14c-.31.14-.54.4-.65.71-.18.51-.5,1.24-.89,1.45-.58.31-1.13-.15-1.66-.43-.52-.28-.92-.25-.92-.25M209.95,75.95c-.55-.24-.94-.17-.94-.17,0,0,.26-.3.32-.89.07-.58.02-1.3.6-1.6.4-.21,1.19-.04,1.7.1.33.09.66.04.95-.12l.28-.16s-.17-.32.26-.57c.43-.25.73.26.81.4.09.15.38.65-.05.9-.43.25-.62-.05-.62-.05l-.28.16c-.28.16-.5.44-.59.76-.14.52-.39,1.27-.76,1.52-.55.36-1.14-.04-1.68-.27M212.29,79.51c-.57-.19-.95-.09-.95-.09,0,0,.23-.33.25-.92.02-.59-.1-1.3.46-1.65.39-.23,1.18-.15,1.7-.05.33.06.67-.02.94-.21l.26-.18s-.19-.3.21-.58c.41-.29.75.19.84.33.1.14.43.62.03.9-.4.28-.63,0-.63,0l-.26.19c-.27.19-.46.48-.52.81-.09.53-.28,1.3-.64,1.58-.52.41-1.14.06-1.7-.13M214.93,82.86c-.58-.14-.95,0-.95,0,0,0,.2-.34.16-.94-.03-.59-.21-1.29.32-1.68.36-.28,1.15-.25,1.68-.2.34.02.66-.08.92-.29l.25-.21s-.22-.28.16-.6c.38-.32.76.13.86.26.11.13.49.57.1.89-.38.32-.62.06-.62.06l-.25.21c-.25.21-.41.52-.44.85-.05.53-.16,1.32-.49,1.63-.49.45-1.13.15-1.71.02M217.85,85.96c-.53-.08-.88.05-.95.08.03-.07.16-.41.08-.94-.09-.59-.33-1.26.16-1.7.33-.31,1.13-.35,1.67-.35.33,0,.65-.13.88-.37l.23-.22s-.24-.27.11-.62c.32-.31.69,0,.84.15.02.02.03.03.04.04,0,0,.03.03.04.04.14.15.42.49.18.79,0,.02-.03.02-.04.04l-.03.02c-.33.32-.59.09-.59.09l-.22.23c-.24.23-.37.55-.37.88,0,.54-.04,1.33-.34,1.67-.45.5-1.12.26-1.7.16M222.7,88.5c-.39.52-1.08.34-1.67.31-.59-.03-.94.16-.94.16,0,0,.14-.37,0-.95-.14-.58-.43-1.23.02-1.71.32-.33,1.1-.45,1.63-.5.34-.03.64-.18.85-.44l.22-.25s-.27-.24.05-.62c.32-.38.77,0,.89.1.13.1.58.48.26.87-.32.38-.6.15-.6.15l-.21.25c-.22.26-.32.58-.28.92.04.53.07,1.33-.21,1.69M226.34,88.27c-.19.28-.27.61-.21.94.09.53.19,1.31-.05,1.7-.35.56-1.06.45-1.65.46-.59.02-.92.25-.92.25,0,0,.1-.39-.09-.94-.18-.57-.54-1.19-.13-1.71.28-.35,1.05-.53,1.58-.63.33-.06.62-.25.81-.51l.19-.27s-.28-.21,0-.63c.28-.4.77-.07.9.03.14.1.62.44.34.84-.28.4-.58.21-.58.21l-.19.27ZM229.85,90.08l-.16.27c-.17.29-.21.64-.13.95.14.52.3,1.3.09,1.7-.29.59-1.01.53-1.6.6-.59.07-.89.33-.89.33,0,0,.07-.39-.16-.94-.24-.55-.64-1.13-.28-1.69.25-.38,1.01-.63,1.52-.76.32-.09.59-.29.77-.58l.16-.28s-.3-.19-.06-.62c.25-.43.76-.14.9-.05.15.09.65.38.4.81-.25.43-.56.27-.56.27M233.88,91.54c-.22.45-.54.32-.54.32l-.14.29c-.14.3-.15.64-.04.95.19.51.41,1.27.25,1.69-.25.61-.96.62-1.55.73-.58.12-.86.4-.86.4,0,0,.03-.4-.25-.92-.28-.52-.74-1.07-.43-1.66.22-.39.95-.71,1.45-.89.31-.11.57-.34.7-.64l.14-.3s-.32-.16-.1-.61c.21-.45.74-.2.89-.13.15.07.68.32.47.76M237.48,92.96c-.16.46-.51.35-.51.35l-.11.31c-.11.31-.09.65.04.95.23.49.52,1.23.39,1.66-.19.64-.9.71-1.47.88-.57.16-.83.47-.83.47,0,0,0-.39-.33-.89-.33-.5-.82-1-.57-1.61.18-.41.88-.79,1.37-1.02.3-.14.53-.39.64-.71l.11-.3s-.33-.14-.15-.6c.16-.47.72-.27.88-.21.16.06.7.26.53.73M239.9,98.34c-.55.21-.77.54-.77.54,0,0-.03-.4-.4-.86-.37-.46-.92-.93-.71-1.55.15-.43.81-.87,1.27-1.13.29-.17.5-.44.58-.76l.09-.31s-.34-.11-.21-.58c.13-.48.7-.33.86-.28.16.04.73.19.6.67-.13.48-.48.4-.48.4l-.08.31c-.09.33-.04.66.12.95.27.46.63,1.18.53,1.61-.14.65-.83.78-1.39,1M244.08,99.21c-.53.27-.73.61-.73.61,0,0-.07-.39-.47-.82-.41-.44-1-.85-.84-1.5.1-.44.72-.93,1.17-1.24.27-.2.46-.48.52-.81l.05-.33s-.34-.07-.26-.56c.09-.49.66-.39.82-.36.16.03.75.13.65.62-.09.49-.44.44-.44.44l-.05.33c-.06.33.02.66.21.94.31.44.73,1.12.67,1.56-.08.65-.77.84-1.3,1.11M248.31,99.72c-.51.31-.67.67-.67.67,0,0-.1-.39-.55-.78-.45-.39-1.07-.75-.97-1.41.07-.45.64-.99,1.06-1.33.26-.21.41-.52.45-.86l.03-.32s-.35-.04-.31-.54c.04-.49.63-.44.79-.43.16.02.76.07.71.56-.04.5-.4.48-.4.48l-.03.33c-.03.33.08.65.28.91.35.41.82,1.05.81,1.5-.02.66-.69.91-1.19,1.22M252.57,99.84c-.47.36-.61.73-.61.73,0,0-.14-.37-.62-.73-.47-.35-1.12-.65-1.08-1.32.03-.46.55-1.05.94-1.43.23-.24.37-.56.37-.88v-.33s-.36-.02-.36-.52.59-.49.76-.49.75,0,.75.49-.35.52-.35.52v.33c0,.33.13.64.37.88.38.38.91.97.93,1.43.04.66-.6.96-1.08,1.32M256.83,99.61c-.45.39-.55.77-.55.77,0,0-.17-.36-.67-.67-.51-.31-1.18-.56-1.2-1.22,0-.46.46-1.09.81-1.5.22-.26.32-.58.29-.91l-.03-.33s-.35-.02-.4-.48c-.04-.49.54-.54.7-.56.16,0,.76-.06.8.43.04.5-.31.54-.31.54l.02.33c.03.33.19.63.44.85.41.34,1,.89,1.06,1.33.09.66-.52,1.02-.96,1.42M261.05,99c-.41.43-.48.82-.48.82,0,0-.2-.34-.73-.61-.52-.27-1.22-.46-1.3-1.11-.05-.45.37-1.12.67-1.56.2-.28.27-.61.21-.94l-.06-.32s-.35.04-.44-.45c-.09-.49.49-.59.65-.62.16-.03.75-.13.83.36.08.49-.27.56-.27.56l.06.33c.05.33.24.62.52.81.44.31,1.07.8,1.17,1.24.15.65-.44,1.06-.84,1.5M265.2,98.02c-.37.46-.4.86-.4.86,0,0-.22-.33-.78-.54-.55-.21-1.25-.34-1.39-1-.09-.44.27-1.15.53-1.61.17-.29.22-.63.13-.95l-.09-.31s-.34.08-.47-.4c-.13-.48.44-.63.6-.67.16-.04.72-.2.85.28.13.47-.21.58-.21.58l.08.31c.08.33.3.59.58.76.47.27,1.13.71,1.27,1.13.21.63-.34,1.09-.71,1.55M269.25,96.69c-.32.47-.33.85-.33.89,0,0-.26-.31-.83-.47-.58-.17-1.28-.24-1.48-.87-.13-.44.16-1.18.4-1.67.14-.3.15-.65.04-.95l-.11-.31s-.34.11-.52-.35c-.16-.47.39-.67.54-.72.16-.06.71-.26.88.21.17.46-.15.6-.15.6l.1.3c.12.32.35.57.65.71.49.22,1.18.6,1.36,1.01.26.61-.24,1.12-.57,1.61M273.17,95.01c-.28.52-.25.92-.25.92,0,0-.28-.28-.87-.4-.58-.11-1.29-.12-1.54-.73-.17-.42.06-1.18.24-1.69.12-.31.1-.65-.03-.95l-.14-.29s-.34.14-.54-.32c-.21-.45.33-.69.47-.76s.68-.32.89.13c.21.45-.11.61-.11.61l.14.3c.15.3.4.53.71.64.51.19,1.23.5,1.44.9.32.57-.14,1.12-.42,1.65M276.92,93c-.24.54-.16.94-.16.94,0,0-.31-.26-.9-.33-.58-.07-1.3,0-1.6-.6-.21-.4-.04-1.18.09-1.7.09-.33.04-.66-.12-.95l-.16-.27s-.32.16-.57-.27c-.24-.43.27-.72.4-.81.15-.09.65-.38.9.05.25.43-.05.62-.05.62l.16.28c.16.29.44.5.76.58.52.14,1.27.39,1.52.76.36.56-.05,1.14-.28,1.69M280.48,90.66c-.19.56-.09.94-.09.94,0,0-.33-.23-.92-.25-.59,0-1.3.1-1.64-.46-.24-.39-.15-1.17-.05-1.7.05-.33-.02-.67-.22-.94l-.18-.27s-.3.19-.58-.21c-.28-.4.2-.75.33-.84.14-.09.62-.43.9-.03.28.41,0,.63,0,.63l.18.27c.19.27.48.46.81.51.53.1,1.3.28,1.59.63.4.52.05,1.14-.14,1.71M283.83,88.03c-.14.58,0,.95,0,.95,0,0-.34-.2-.94-.16-.59.03-1.28.21-1.68-.31-.27-.36-.24-1.16-.2-1.69.03-.34-.08-.66-.29-.92l-.21-.25s-.28.22-.6-.15c-.32-.39.14-.76.26-.87.13-.1.58-.48.9-.1.32.38.05.62.05.62l.21.25c.21.26.52.41.85.44.54.05,1.32.16,1.63.5.45.48.15,1.12.02,1.71M287.01,86.04c-.06-.03-.4-.15-.94-.07-.58.09-1.26.33-1.7-.17-.3-.33-.34-1.12-.34-1.67,0-.33-.14-.65-.37-.88l-.23-.23s-.22.21-.54-.05c-.03-.02-.04-.04-.07-.06h0c-.34-.35.08-.76.19-.88l.03-.03s.05-.04.09-.08c.18-.15.49-.34.77-.08.35.35.11.62.11.62l.22.22c.24.24.56.37.89.37.53,0,1.32.04,1.67.35.49.44.25,1.11.16,1.7-.08.52.05.87.07.94M289,82.86c-.58.14-1.23.44-1.71-.02-.33-.31-.45-1.1-.49-1.63-.03-.34-.19-.64-.45-.85l-.25-.21s-.24.26-.62-.06c-.38-.32,0-.76.1-.89.11-.13.49-.58.87-.26.38.32.16.6.16.6l.25.21c.25.21.58.32.91.29.54-.05,1.33-.08,1.69.2.53.39.35,1.09.32,1.68-.04.59.16.94.16.94,0,0-.38-.14-.95,0M291.63,79.51c-.57.19-1.19.54-1.7.13-.36-.27-.54-1.05-.64-1.58-.06-.33-.24-.62-.52-.81l-.27-.19s-.22.28-.62,0c-.41-.28-.07-.76.03-.9.1-.14.43-.62.83-.34.41.29.21.58.21.58l.27.19c.27.19.61.27.94.21.53-.1,1.32-.18,1.7.05.57.35.45,1.06.46,1.65.02.59.24.92.24.92,0,0-.38-.1-.94.09M293.97,75.95c-.54.23-1.13.63-1.68.27-.38-.25-.63-1-.77-1.52-.09-.32-.29-.59-.58-.76l-.27-.16s-.19.3-.62.05c-.43-.25-.14-.76-.06-.9.09-.15.38-.65.81-.4.43.25.27.57.27.57l.28.15c.28.17.63.22.94.13.52-.14,1.3-.3,1.7-.1.59.3.53,1,.6,1.6.07.59.33.89.33.89,0,0-.4-.07-.94.17M295.98,72.19c-.52.28-1.07.74-1.65.43-.4-.21-.71-.94-.9-1.45-.11-.31-.34-.57-.64-.71l-.29-.14s-.16.32-.62.1c-.45-.21-.2-.74-.13-.89.07-.15.32-.69.76-.47.46.21.32.53.32.53l.29.14c.3.14.65.16.96.04.5-.18,1.26-.41,1.68-.24.61.24.62.95.74,1.54.12.58.39.86.39.86,0,0-.39-.04-.92.25M297.66,68.27c-.49.33-1.01.83-1.61.57-.42-.17-.8-.88-1.02-1.36-.14-.31-.4-.54-.71-.65l-.31-.11s-.14.33-.6.16c-.46-.17-.27-.72-.21-.88.05-.15.26-.71.72-.54.46.17.36.51.36.51l.3.11c.32.11.66.1.96-.04.49-.22,1.22-.51,1.66-.39.64.19.7.9.87,1.47.17.57.47.82.47.82,0,0-.4,0-.89.33M298.99,64.23c-.46.37-.93.91-1.55.7-.43-.14-.86-.81-1.13-1.27-.16-.28-.44-.5-.76-.58l-.32-.09s-.1.34-.58.21c-.48-.13-.33-.7-.28-.86.04-.15.2-.72.67-.59.48.13.4.47.4.47l.31.09c.33.09.67.04.95-.13.47-.27,1.18-.63,1.62-.53.64.14.77.84.99,1.39.22.55.55.78.55.78,0,0-.4.04-.87.4M299.97,60.08c-.43.4-.84.99-1.49.83-.45-.1-.94-.72-1.24-1.17-.19-.27-.48-.46-.81-.52l-.32-.05s-.08.34-.57.26c-.49-.09-.39-.66-.35-.82.03-.16.13-.74.62-.65.48.09.44.44.44.44l.32.05c.33.06.66-.02.94-.21.44-.31,1.12-.72,1.56-.67.66.08.85.76,1.12,1.3.27.53.61.73.61.73,0,0-.4.07-.83.48M300.58,55.85c-.4.45-.76,1.07-1.41.97-.45-.07-1-.65-1.34-1.06-.21-.26-.52-.41-.85-.44l-.33-.03s-.04.35-.54.31c-.49-.04-.44-.63-.42-.79,0-.16.06-.75.56-.7.49.04.47.4.47.4l.33.02c.33.04.66-.07.91-.28.41-.34,1.05-.83,1.5-.81.66.02.91.69,1.22,1.19.31.51.67.68.67.68,0,0-.38.1-.77.54"/><path class="cls-1" d="M283.34,47.17c-.63.58-1.29,1.27-1.99,2.09-3.6-10.48-12.71-18.56-23.41-20.7l-2.9-.58,2.4-1.74c.83-.6,1.71-1.17,2.61-1.68-3.27-1.96-6.53-4.9-8.33-8.59-1.87,3.74-5.07,6.66-8.23,8.58.91.52,1.79,1.08,2.63,1.69l2.39,1.74-2.89.58c-10.55,2.12-19.65,10.01-23.28,20.15-.71-.79-1.38-1.45-2.01-1.98,3.81-9.49,12.07-17.01,21.83-19.96-.64-.37-1.3-.7-1.98-1.01l-2.52-1.17,2.51-1.18c4.18-1.97,9.09-6.05,10.35-11.65l.6-3.04c.31-.02.63-.02.95-.02.16,0,.34,0,.5,0l.49,3.11c.97,5.44,5.97,9.55,10.33,11.59l2.52,1.18-2.53,1.17c-.67.31-1.33.64-1.97,1.01,9.88,2.97,18.14,10.64,21.94,20.41"/><polygon class="cls-1" points="250.1 44.03 248.81 44.13 249.52 44.97 251.14 44.76 250.1 44.03"/><polygon class="cls-1" points="253.76 44.06 254.87 44.06 254.09 44.99 252.39 44.61 253.76 44.06"/><path class="cls-2" d="M36.31,35.66c2.1-.03,3.71-.52,4.84-1.45,1.13-.93,1.7-2.4,1.7-4.4v-7.76l-4.08,1.12v6.48c0,.67-.09,1.2-.28,1.58-.19.38-.47.65-.84.8-.37.15-.9.24-1.58.27H12.72c-.31,0-.58-.02-.82-.06-.24-.04-.46-.1-.67-.17-.46-.06-.81-.2-1.05-.41-.25-.22-.41-.49-.49-.82-.07-.27-.1-.59-.11-.94l-.12-6.94-4.08,1.12.22,11.61c.02.71-.12,1.38-.4,1.99-.29.61-.76,1.11-1.42,1.5-.66.39-1.51.6-2.57.61l.46,2.73c1.81.09,3.31-.11,4.52-.61,1.21-.49,2.1-1.23,2.68-2.21.58-.98.85-2.15.83-3.51l-.03-1.5s.05.07.08.1c.55.59,1.38.88,2.51.88h24.07Z"/><path class="cls-2" d="M40.87,39.07l-2,2.27c-.33-.41-.68-.82-1.08-1.2-.47-.45-.93-.81-1.37-1.07l-2.38,2.71c.44.26.9.61,1.37,1.06.47.45.89.92,1.26,1.42l2.05-2.33c.37.24.75.53,1.14.91.47.45.89.92,1.26,1.42l2.38-2.71c-.37-.49-.79-.96-1.26-1.42-.47-.45-.93-.81-1.37-1.07"/><path class="cls-2" d="M52.29,42.09c1.9-.39,3.42-1.17,4.56-2.32,1.14-1.16,1.72-2.53,1.72-4.11h4.38v2.23c.74-.7,1.46-1.21,2.14-1.54.69-.33,1.3-.53,1.84-.6.54-.07,1.12-.1,1.74-.09h8.87c2.78,0,4.86-.77,6.26-2.29.14.52.36.98.69,1.36.54.62,1.38.93,2.54.93h3.48c2.1-.03,3.71-.52,4.84-1.45,1.13-.94,1.7-2.4,1.7-4.4v-7.76h-4.08v7.6c0,.67-.09,1.2-.28,1.58-.19.38-.47.64-.84.8-.37.15-.9.24-1.58.27h-2.77c-.31,0-.58-.02-.82-.06-.24-.04-.46-.1-.65-.18-.38-.02-.69-.11-.91-.25-.06-.04-.11-.09-.16-.14.99-2.04.89-4.09-.33-6.15-1.34-2.26-3.7-3.39-7.08-3.39-1.59,0-3.06.3-4.4.91-1.34.61-2.51,1.4-3.51,2.38-1,.98-1.82,2.06-2.46,3.23v-11.01l-4.23,1.12v13.52s-2.5,0-2.5,0h-1.87v-.09c0-1.45-.13-2.73-.38-3.83-.25-1.11-.64-2.05-1.15-2.82-.57-.86-1.31-1.5-2.21-1.94-.9-.44-1.96-.65-3.18-.65-1.29,0-2.4.3-3.34.9-.93.6-1.66,1.38-2.17,2.35-.51.97-.79,2-.84,3.1-.06,1.1.11,2.13.52,3.1.4.97,1.03,1.75,1.89,2.35.86.6,1.9.9,3.15.9h3.71c0,.83-.33,1.58-1,2.24-.67.66-1.64,1.11-2.9,1.34-1.26.23-3.69-.01-5.37-.43v2.86c2.13.58,5.1.82,7,.43M67.25,32.74c.38-.52.78-1.01,1.19-1.46.41-.45.85-.89,1.32-1.32.46-.44.96-.87,1.49-1.29.97-.87,1.99-1.56,3.04-2.05,1.06-.49,2.14-.74,3.24-.74,1.6,0,2.73.54,3.36,1.6.64,1.07.64,2.14,0,3.21-.64,1.07-1.76,1.6-3.36,1.6h-7.1c-.79,0-1.4.03-1.84.09-.44.06-.9.2-1.39.42l.05-.06ZM51.19,32.29c-.53,0-.98-.14-1.34-.44s-.62-.67-.77-1.14c-.15-.47-.2-.97-.16-1.49.05-.51.19-.98.41-1.42.23-.44.54-.8.93-1.07.4-.27.86-.4,1.38-.4.38,0,.74.08,1.09.25.35.17.66.4.92.71.28.31.51.67.67,1.1.16.43.24.89.24,1.38v2.52h-3.37Z"/><path class="cls-2" d="M91.02,20.33l2.05-2.33c.37.24.75.53,1.15.91.47.45.89.92,1.26,1.42l2.38-2.71c-.37-.5-.79-.97-1.26-1.42-.47-.45-.93-.8-1.37-1.06l-2,2.27c-.33-.42-.68-.82-1.09-1.21-.47-.45-.93-.8-1.37-1.06l-2.38,2.71c.44.26.9.61,1.37,1.06.47.45.89.92,1.26,1.42"/><path class="cls-2" d="M108.19,20.33l2.05-2.33c.37.24.75.53,1.15.91.47.45.9.92,1.26,1.42l2.38-2.71c-.38-.5-.8-.97-1.27-1.42-.47-.45-.93-.8-1.36-1.06l-2,2.27c-.33-.42-.69-.83-1.1-1.21-.47-.45-.93-.8-1.36-1.06l-2.38,2.71c.44.26.9.61,1.37,1.06.48.45.9.92,1.26,1.42"/><path class="cls-2" d="M106.06,35.55c1.13.66,2.48.99,4.07.99.87,0,1.75-.17,2.62-.54.87-.36,1.64-.89,2.31-1.57.4.41.85.72,1.35.92.5.21.97.31,1.42.31h2.28s0,0,0,0,0,0,0,0h26.55c1.35,0,2.48-.26,3.41-.77.85-.47,1.48-1.1,1.93-1.88.12.69.4,1.27.84,1.75.55.59,1.39.89,2.51.89h2.41c1.35,0,2.48-.26,3.41-.77.84-.47,1.48-1.1,1.93-1.88.12.69.4,1.27.84,1.75.55.59,1.38.89,2.51.89h23.18c-.18-.43-.34-.9-.46-1.4-.12-.5-.19-.98-.19-1.43v-6.25c-.01-1.29-.34-2.43-.99-3.42-.65-.99-1.53-1.76-2.63-2.3-1.11-.54-2.33-.81-3.68-.81-1.15,0-2.23.19-3.26.57-1.02.38-2.04.98-3.06,1.8-1.12.15-2.12.49-2.98,1.02-.86.53-1.54,1.23-2.02,2.08-.48.86-.72,1.83-.72,2.91v3.86h-1.85c-.4,0-.82-.02-1.25-.06-.44-.04-.8-.1-1.11-.18-.46-.06-.81-.2-1.05-.41-.25-.22-.41-.49-.49-.82-.01-.06-.02-.13-.03-.19.03-.27.04-.55.04-.83v-7.76l-4.08,1.12v6.48c0,.46-.04.85-.13,1.18-.09.33-.25.6-.5.82-.24.22-.6.36-1.07.41-.3.07-.66.13-1.1.18-.42.04-.83.06-1.22.06-.3,0-.57-.02-.8-.06-.24-.04-.46-.1-.67-.18-.46-.06-.81-.2-1.05-.41-.25-.22-.41-.49-.49-.82-.01-.06-.02-.13-.03-.19.03-.27.04-.55.04-.83v-7.76l-4.08,1.12v6.48c0,.46-.04.85-.13,1.18-.09.33-.25.6-.5.82-.24.22-.6.36-1.07.41-.21.07-.43.13-.66.18-.23.04-.5.06-.81.06h-25.44s0,0,0,0,0,0,0,0h-.66c-.61,0-1.08-.09-1.42-.26-.34-.17-.57-.46-.71-.84-.14-.39-.21-.93-.21-1.63v-4.27c0-.47,0-.83.03-1.1.03-.27.08-.5.17-.71.09-.21.23-.39.42-.54v-.06h-7.59c-1.49,0-2.79.31-3.9.92-1.11.61-1.97,1.43-2.57,2.44-.6,1.01-.92,2.1-.96,3.26-.04,1.23.22,2.38.79,3.45.57,1.07,1.41,1.93,2.54,2.59M181.2,23.51c.52-.03,1.02.03,1.5.2.42.11.8.29,1.12.56.32.27.57.6.75.99.18.4.27.84.27,1.32v5.52c.01.08.02.14.04.2h-2.91v-3.87c0-.85-.21-1.66-.62-2.44-.41-.78-.98-1.47-1.7-2.09.52-.22,1.04-.35,1.56-.39M174.22,25.89l1.2-.55,1.36.58c.88.37,1.46,1.24,1.46,2.2v4.18h-5.4v-4.23c0-.93.54-1.78,1.39-2.17M107.14,28.02c.29-.52.7-.94,1.23-1.26.53-.32,1.12-.48,1.79-.48h3.13c-.02.36-.04.64-.05.84,0,.2-.01.29-.01.28v2.75c0,.45.03.87.1,1.27-.22.39-.49.72-.84.99-.34.27-.72.47-1.12.6-.41.13-.82.19-1.25.18-.63-.02-1.21-.17-1.73-.46-.52-.29-.94-.7-1.25-1.22-.31-.52-.45-1.13-.44-1.82,0-.58.15-1.13.44-1.65"/><path class="cls-2" d="M154.6,17.47h-2.41c-.39,0-.71-.05-.97-.15-.26-.1-.45-.23-.57-.39-.12-.16-.17-.34-.14-.53-.02-.15.02-.3.11-.45.09-.15.23-.28.41-.39.19-.11.41-.18.67-.21.28-.03.58-.02.89.04.31.06.63.18.94.35l-.24-1.72c-.39-.23-.83-.37-1.31-.45-.48-.08-.96-.07-1.42.01-.42.08-.8.21-1.14.41-.34.2-.6.45-.79.74-.19.3-.29.62-.3.98-.05.31,0,.62.12.95.13.32.33.6.6.81h-1.86l-.29,2.17h7.43l.27-2.17Z"/><path class="cls-2" d="M163.95,39.07l-2,2.27c-.33-.41-.69-.82-1.1-1.2-.47-.45-.93-.81-1.36-1.07l-2.38,2.71c.44.26.9.61,1.37,1.06.47.45.89.92,1.26,1.42l2.05-2.33c.37.24.75.53,1.14.91.47.45.9.92,1.26,1.42l2.38-2.71c-.38-.49-.8-.96-1.27-1.42-.47-.45-.93-.81-1.36-1.07"/><path class="cls-2" d="M6.89,64.14c-.48-.23-.87-.54-1.17-.92-.29-.38-.48-.79-.55-1.24-.07-.45-.02-.88.17-1.32.2-.47.54-.83,1.03-1.09.49-.26,1.09-.38,1.8-.34.72.03,1.5.23,2.35.6l-.31-2.61c-1.16-.56-2.36-.87-3.61-.92-1.25-.06-2.36.18-3.33.72-.97.54-1.62,1.38-1.96,2.51-.22.68-.24,1.38-.09,2.08s.49,1.33.99,1.88c.5.55,1.14.92,1.91,1.12H.37l-.37,3.37h12.01l.37-3.37h-3.43c-.79,0-1.48-.15-2.06-.46"/><path class="cls-2" d="M155.06,66.55c.67-.29,1.56-.71,2.68-1.25.85-.38,1.49-.66,1.91-.82.87-.37,1.71-.66,2.53-.87.65-.17,1.31-.29,1.97-.35l.95-3.89c-.61-.03-1.22-.12-1.85-.3-.62-.18-1.22-.38-1.8-.62-.57-.24-1.3-.57-2.17-.98-.22-.1-.45-.2-.66-.31-.22-.11-.44-.21-.66-.31-1.18-.61-2.27-1.1-3.27-1.47-1-.37-2-.64-3.01-.8-.92-.13-1.86-.17-2.82-.09-.96.07-1.94.26-2.96.58l1.35,3.4s.56-.09,1.44-.15c.87-.06,1.76-.03,2.66.09.63.09,1.27.24,1.93.46s1.38.5,2.16.87c1.05.33,2.24.79,3.58,1.38-1.58.75-2.73,1.28-3.46,1.6-.72.32-1.49.6-2.3.85-1.32.4-2.65.68-3.98.83-1.33.15-27.72.23-29.66.23-.31,0-.58-.02-.81-.06-.23-.04-.45-.1-.66-.18-.46-.06-.81-.2-1.05-.41-.24-.22-.41-.49-.49-.82-.02-.09-.03-.19-.05-.29.02-.24.06-.48.06-.73v-7.76l-4.08,1.12v6.48c0,.58-.11,1.08-.34,1.49-.23.41-.53.72-.89.91-.37.2-.75.28-1.16.25-.38-.02-.73-.14-1.05-.35-.33-.21-.59-.51-.8-.9-.06-.11-.09-.24-.13-.37.03-.29.08-.57.08-.87v-6.53l-4.08,1.12v5.25c0,.58-.11,1.08-.34,1.49-.23.41-.53.72-.9.91-.37.2-.76.28-1.15.25-.38-.02-.74-.14-1.07-.35-.33-.21-.59-.51-.79-.9-.09-.18-.16-.39-.21-.6.01-.21.03-.42.03-.64v-5.29l-4.08,1.12v4.01c0,.72-.1,1.28-.31,1.66-.21.38-.53.64-.96.78-.43.14-1.07.21-1.9.21H22.38c-.31,0-.58-.02-.81-.06-.23-.04-.45-.1-.66-.18-.46-.06-.81-.2-1.06-.41s-.42-.49-.51-.82c-.09-.33-.13-.72-.13-1.18v-11.99l-4.08,1.12v11.04c0,1.12.23,2.11.68,3,.45.88,1.14,1.58,2.06,2.09.92.51,2.05.77,3.4.77h71.23s0,0,0,0c1.54,0,2.84-.19,3.9-.57,1.07-.38,1.89-1.01,2.46-1.87.09-.14.16-.29.24-.44.19.76.54,1.41,1.07,1.94.62.62,1.48.94,2.56.94,1.33,0,2.41-.27,3.23-.81.71-.47,1.24-1.08,1.59-1.8.2.65.54,1.21,1.01,1.68.62.62,1.48.94,2.56.94,1.33,0,2.41-.27,3.23-.81.66-.43,1.16-.97,1.51-1.62.14.59.41,1.11.8,1.54.55.59,1.39.89,2.51.89h.46c1.5,0,27.46-.01,28.38-.04.91-.02,1.8-.09,2.67-.19.86-.1,1.68-.26,2.43-.49.63-.18,1.28-.42,1.95-.71"/><path class="cls-2" d="M166.2,67.97h9.06c1.18,0,2.28-.29,3.29-.89,1.01-.59,1.81-1.39,2.41-2.4.6-1.01.89-2.1.89-3.29v-11.43l-4.08,1.12v10.31c0,.6-.12,1.14-.37,1.64-.25.49-.56.88-.95,1.15-.39.28-.78.42-1.19.42h-.51c-.73-3.34-1.61-10.79-1.33-12.44l-3.65.79c-.02,4.44,1.05,9.19,1.85,11.65h-5.97l.55,3.37Z"/><path class="cls-2" d="M167.9,51.74h7.44l.27-2.18h-2.41c-.4,0-.73-.05-.98-.14-.25-.1-.44-.23-.56-.39-.12-.16-.17-.34-.14-.53-.02-.15,0-.3.09-.45.09-.15.23-.28.42-.39.19-.11.42-.18.67-.21.28-.03.58-.02.89.03.31.05.62.17.93.34l-.22-1.71c-.4-.22-.84-.37-1.32-.45-.48-.08-.95-.07-1.41.01-.42.07-.8.21-1.14.41-.34.2-.6.44-.79.74-.19.29-.29.62-.3.99-.05.31,0,.62.12.94.13.32.33.59.59.8h-1.85l-.3,2.18Z"/><polygon class="cls-2" points="184.6 67.97 188.83 67.97 188.83 49.96 184.6 51.08 184.6 67.97"/><path class="cls-2" d="M5.24,76.04h-2L.16,85.12h2.24l.62-2.11h2.87c.02-.07.03-.16.04-.26,0-.1,0-.22,0-.37l.8,2.74h2.24l-3.08-9.07h-.66ZM3.46,81.49l1.08-3.68h.04l1.08,3.68h-2.21Z"/><rect class="cls-2" x="9.73" y="76.04" width="2.12" height="9.07"/><path class="cls-2" d="M20.18,76.04h-2l-3.08,9.07h2.24l.62-2.11h2.87c.02-.07.03-.16.04-.26,0-.1,0-.22,0-.37l.8,2.74h2.24l-3.08-9.07h-.66ZM18.41,81.49l1.08-3.68h.04l1.08,3.68h-2.21Z"/><path class="cls-2" d="M30.23,78.43c-.36-.21-.79-.31-1.3-.31-.54,0-.99.13-1.36.39-.36.26-.63.62-.8,1.09h-.04v-3.56h-2.06v9.07h2.06v-3.91c0-.28.05-.52.16-.74.1-.21.25-.38.45-.5.19-.12.42-.18.67-.18.4,0,.71.12.92.37.21.24.32.59.32,1.03v3.93h2.06v-4.37c0-.56-.09-1.03-.28-1.42-.19-.39-.46-.68-.81-.89"/><path class="cls-2" d="M36.39,81.11l-1.17-.22c-.37-.08-.63-.17-.77-.27-.14-.11-.21-.25-.21-.42h0c0-.15.04-.27.13-.38.09-.1.21-.18.36-.24.15-.06.33-.09.53-.09.34,0,.62.09.82.26.2.17.32.38.35.62v.05h1.88v-.04c-.01-.42-.14-.8-.37-1.13-.23-.34-.57-.61-1.02-.81-.45-.2-1-.3-1.66-.3-.61,0-1.14.09-1.59.26-.45.18-.8.42-1.04.75-.24.32-.36.71-.36,1.16h0c0,.51.17.93.51,1.27.34.34.85.57,1.52.7l1.18.23c.35.07.6.16.75.27.15.11.22.26.22.44h0c0,.14-.05.26-.14.37-.09.1-.22.18-.38.24-.16.06-.35.09-.58.09-.36,0-.64-.08-.86-.24-.22-.16-.35-.37-.41-.63v-.05h-2.01v.06c.06.44.22.83.48,1.16.26.34.62.6,1.09.79.47.19,1.04.28,1.7.28.62,0,1.17-.09,1.64-.28.47-.19.83-.45,1.1-.79s.39-.74.39-1.21h0c0-.51-.17-.92-.5-1.21-.34-.29-.87-.51-1.59-.65"/><path class="cls-2" d="M44.06,78.41c-.45-.19-.98-.29-1.58-.29s-1.17.09-1.61.27c-.45.18-.81.44-1.07.78-.26.34-.41.73-.46,1.19v.08s1.84,0,1.84,0v-.07c.06-.24.18-.43.39-.57.2-.14.47-.21.8-.21s.61.09.79.26c.18.17.27.4.27.71v.35l-1.67.11c-.89.06-1.57.27-2.04.63-.47.36-.7.86-.7,1.5h0c0,.4.1.74.3,1.05.19.31.47.54.83.7.36.16.76.24,1.18.23.27,0,.52-.04.76-.11.24-.07.45-.16.63-.28.18-.1.33-.23.44-.38.11-.15.19-.32.23-.5h.04v1.24h2.06v-4.65c0-.47-.12-.88-.37-1.23-.25-.36-.6-.63-1.06-.82M43.42,82.68c0,.21-.06.4-.18.57-.12.17-.29.31-.49.41-.21.1-.44.14-.7.14-.2,0-.38-.03-.54-.1-.16-.07-.28-.16-.36-.28-.09-.12-.13-.26-.13-.41h0c0-.25.09-.44.27-.59.18-.14.45-.23.81-.25l1.32-.1v.6Z"/><path class="cls-2" d="M55.14,76.56c-.65-.34-1.44-.51-2.35-.51h-3.62v9.07h3.62c.92,0,1.7-.18,2.36-.54.65-.37,1.15-.89,1.49-1.58.34-.68.51-1.51.51-2.47h0c0-.99-.17-1.8-.51-2.46-.34-.67-.84-1.17-1.49-1.51M54.98,80.53c0,.64-.09,1.17-.28,1.59-.19.43-.47.75-.84.97-.37.22-.82.32-1.37.32h-1.2v-5.15c0-.15-.05-.27-.16-.36-.11-.09-.24-.14-.4-.14v-.02h1.76c.52,0,.97.1,1.35.32.37.21.66.53.85.94.2.42.29.92.29,1.52h0Z"/><path class="cls-2" d="M63.04,78.55c-.51-.28-1.1-.42-1.79-.42s-1.28.14-1.78.43c-.51.29-.9.69-1.18,1.22-.28.53-.42,1.17-.42,1.91h0c0,.74.14,1.38.42,1.91.28.54.68.94,1.2,1.23.52.29,1.13.43,1.84.43.55,0,1.01-.07,1.4-.21.39-.14.71-.32.96-.54.25-.23.45-.47.59-.73.14-.26.24-.51.3-.75v-.08s-1.83,0-1.83,0v.03c-.04.13-.12.26-.23.39-.11.13-.27.24-.45.33-.19.09-.42.13-.69.13-.31,0-.57-.07-.79-.2-.22-.14-.39-.34-.51-.6-.11-.24-.17-.54-.18-.87h4.74v-.6c0-.7-.14-1.3-.42-1.81-.28-.51-.67-.9-1.18-1.18M60.56,79.77c.21-.14.46-.21.75-.21s.53.07.74.21c.21.14.38.34.5.59.08.17.12.38.15.6h-2.79c.03-.22.07-.42.15-.6.12-.26.28-.45.5-.59"/><polygon class="cls-2" points="68.48 83.44 68.45 83.44 67.13 78.26 64.91 78.26 67.21 85.12 69.65 85.12 71.94 78.26 69.77 78.26 68.48 83.44"/><path class="cls-2" d="M77.38,78.55c-.51-.28-1.1-.42-1.79-.42s-1.28.14-1.78.43c-.51.29-.9.69-1.18,1.22-.28.53-.42,1.17-.42,1.91h0c0,.74.14,1.38.42,1.91.28.54.68.94,1.2,1.23.52.29,1.13.43,1.84.43.55,0,1.01-.07,1.4-.21.39-.14.71-.32.96-.54.25-.23.45-.47.59-.73.14-.26.24-.51.3-.75v-.08s-1.83,0-1.83,0v.03c-.04.13-.12.26-.23.39-.11.13-.27.24-.45.33-.19.09-.42.13-.69.13-.31,0-.57-.07-.79-.2-.22-.14-.39-.34-.51-.6-.11-.24-.17-.54-.18-.87h4.74v-.6c0-.7-.14-1.3-.42-1.81-.28-.51-.67-.9-1.18-1.18M74.9,79.77c.21-.14.46-.21.75-.21s.53.07.74.21c.21.14.38.34.5.59.08.17.12.38.15.6h-2.78c.03-.22.07-.42.15-.6.12-.26.28-.45.5-.59"/><rect class="cls-2" x="79.87" y="76.04" width="2.12" height="9.07"/><path class="cls-2" d="M88.86,79.1c-.6-.65-1.45-.97-2.55-.97s-1.87.29-2.45.85c-.36.34-.6.74-.74,1.19-.14.46-.2.89-.2,1.3,0,.19.03.47.09.85.06.38.19.78.4,1.19.26.51.62.93,1.09,1.26.47.32,1.08.49,1.82.49.67,0,1.23-.13,1.68-.4.45-.26.8-.62,1.07-1.06.27-.44.44-.89.53-1.33.08-.44.12-.78.12-1,0-.4-.07-.82-.2-1.24-.14-.43-.35-.8-.66-1.13M87.79,82.19c-.07.25-.17.48-.31.69-.13.21-.3.38-.49.5-.19.12-.42.18-.66.18-.27,0-.5-.07-.71-.21-.2-.14-.37-.32-.51-.55-.12-.21-.21-.42-.26-.65-.05-.23-.08-.44-.08-.64,0-.25.04-.48.11-.7.07-.22.18-.4.33-.56.28-.28.65-.42,1.12-.42.43,0,.78.12,1.05.37.17.15.29.34.38.56s.13.47.13.74c0,.21-.03.44-.1.69"/><path class="cls-2" d="M96.35,78.54c-.41-.28-.9-.42-1.47-.42-.35,0-.67.06-.96.19-.29.13-.53.31-.73.54-.2.24-.36.51-.46.82h-.05v-1.42h-2.06v9.05h2.06v-3.57h.04c.1.3.26.57.46.79.21.23.45.4.75.53.29.13.62.19.98.19.57,0,1.06-.14,1.46-.42.4-.28.71-.69.92-1.22.21-.53.32-1.17.32-1.92h0c0-.76-.11-1.4-.32-1.93-.22-.53-.53-.94-.93-1.22M95.52,81.69c0,.39-.06.72-.18,1-.12.28-.28.5-.5.66-.21.16-.46.24-.75.24s-.54-.08-.75-.23c-.22-.15-.38-.37-.5-.66-.12-.29-.18-.62-.18-1.01h0c0-.4.06-.73.18-1.02.12-.29.29-.5.51-.66.22-.15.47-.23.75-.23s.53.08.74.23.38.37.5.65c.12.28.18.62.18,1.01h0Z"/><path class="cls-2" d="M107.81,78.42c-.33-.2-.72-.3-1.17-.3-.36,0-.68.07-.97.2-.29.13-.54.32-.73.55-.2.24-.33.5-.41.8h-.04c-.05-.32-.17-.59-.34-.83-.17-.23-.39-.41-.66-.54-.27-.13-.57-.19-.91-.19-.49,0-.92.14-1.27.41-.35.27-.59.64-.71,1.08h-.04v-1.36h-2.06v6.85h2.06v-3.99c0-.27.04-.51.14-.71.09-.2.22-.35.38-.46.16-.11.36-.16.58-.16.33,0,.6.11.78.32.19.22.28.52.28.92v4.09h1.96v-4.04c0-.26.04-.49.13-.68.09-.19.21-.34.38-.45.17-.11.36-.16.58-.16.34,0,.61.1.79.31.18.21.28.52.28.92v4.09h2.06v-4.63c0-.47-.09-.89-.28-1.24-.19-.36-.45-.63-.78-.83"/><path class="cls-2" d="M114.87,78.55c-.51-.28-1.1-.42-1.79-.42s-1.28.14-1.78.43c-.51.29-.9.69-1.18,1.22-.28.53-.42,1.17-.42,1.91h0c0,.74.14,1.38.42,1.91.28.54.68.94,1.2,1.23s1.13.43,1.84.43c.55,0,1.01-.07,1.4-.21.39-.14.71-.32.96-.54.25-.23.45-.47.59-.73.14-.26.24-.51.3-.75v-.08s-1.83,0-1.83,0v.03c-.04.13-.12.26-.23.39-.11.13-.27.24-.45.33-.19.09-.42.13-.69.13-.31,0-.57-.07-.79-.2-.22-.14-.39-.34-.51-.6-.11-.24-.17-.54-.18-.87h4.74v-.6c0-.7-.14-1.3-.42-1.81-.28-.51-.67-.9-1.18-1.18M112.4,79.77c.21-.14.46-.21.75-.21s.53.07.74.21c.21.14.38.34.5.59.08.17.12.38.15.6h-2.78c.03-.22.07-.42.15-.6.12-.26.28-.45.5-.59"/><path class="cls-2" d="M121.59,78.12c-.54,0-.99.13-1.36.39-.36.26-.63.62-.8,1.09h-.04v-1.34h-2.06v6.85h2.06v-3.9c0-.28.05-.52.16-.74.11-.21.26-.38.45-.5.19-.12.42-.18.68-.18.4,0,.71.12.92.37.21.24.32.59.32,1.03v3.93h2.06v-4.37c0-.83-.21-1.47-.62-1.93-.42-.46-1.01-.69-1.76-.69"/><path class="cls-2" d="M127.65,76.48h-2.06v1.26c0,.15.05.27.16.36.11.09.24.13.4.13v.02h-1.49v1.5h.93v3.44c0,.49.08.89.24,1.19.16.3.41.52.75.66.34.14.77.2,1.3.2.39,0,.73-.03,1.03-.08v-1.45c-.14.02-.28.04-.44.04-.28,0-.49-.07-.62-.21s-.2-.36-.2-.66v-3.12h1.26v-1.5h-1.26v-1.78Z"/><path class="cls-2" d="M137.03,76.04h-2l-3.08,9.07h2.24l.62-2.11h2.87c.02-.07.03-.16.04-.26,0-.1,0-.22,0-.37l.8,2.74h2.24l-3.08-9.07h-.66ZM135.26,81.49l1.08-3.68h.04l1.08,3.68h-2.21Z"/><path class="cls-2" d="M146.04,82.17c0,.28-.05.52-.16.74-.1.21-.25.38-.44.5-.19.12-.42.18-.68.18-.4,0-.71-.12-.92-.37s-.32-.59-.32-1.03v-3.93h-2.06v4.37c0,.55.09,1.03.28,1.42.19.39.46.69.82.9.36.2.79.31,1.29.31.54,0,.99-.13,1.36-.39.37-.26.63-.62.79-1.09h.04v1.34h2.06v-6.85h-2.06v3.9Z"/><path class="cls-2" d="M151.81,76.48h-2.06v1.26c0,.15.05.27.16.36.11.09.24.13.4.13v.02h-1.49v1.5h.93v3.44c0,.49.08.89.24,1.19.16.3.41.52.75.66.34.14.77.2,1.3.2.39,0,.73-.03,1.03-.08v-1.45c-.14.02-.28.04-.44.04-.28,0-.49-.07-.62-.21s-.2-.36-.2-.66v-3.12h1.26v-1.5h-1.26v-1.78Z"/><path class="cls-2" d="M159.57,78.43c-.36-.21-.79-.31-1.3-.31-.54,0-.99.13-1.36.39-.36.26-.63.62-.8,1.09h-.04v-3.56h-2.06v9.07h2.06v-3.91c0-.28.05-.52.16-.74.1-.21.25-.38.45-.5.19-.12.42-.18.67-.18.4,0,.71.12.92.37.21.24.32.59.32,1.03v3.93h2.06v-4.37c0-.56-.09-1.03-.28-1.42-.19-.39-.46-.68-.81-.89"/><path class="cls-2" d="M167.48,79.1c-.6-.65-1.45-.97-2.55-.97s-1.87.29-2.45.85c-.36.34-.6.74-.73,1.19-.14.46-.2.89-.2,1.3,0,.19.03.47.09.85.06.38.19.78.4,1.19.26.51.62.93,1.09,1.26.47.32,1.08.49,1.82.49.67,0,1.23-.13,1.68-.4.45-.26.8-.62,1.07-1.06.27-.44.44-.89.53-1.33.08-.44.12-.78.12-1,0-.4-.07-.82-.2-1.24-.14-.43-.35-.8-.66-1.13M166.4,82.19c-.07.25-.17.48-.31.69-.13.21-.3.38-.49.5-.19.12-.42.18-.66.18-.27,0-.5-.07-.71-.21-.2-.14-.37-.32-.51-.55-.12-.21-.21-.42-.26-.65-.05-.23-.08-.44-.08-.64,0-.25.04-.48.11-.7.07-.22.18-.4.33-.56.28-.28.65-.42,1.12-.42.43,0,.78.12,1.05.37.17.15.29.34.38.56s.13.47.13.74c0,.21-.03.44-.1.69"/><path class="cls-2" d="M172.93,78.12c-.42,0-.77.12-1.04.36-.27.24-.46.59-.56,1.04h-.04v-1.27h-2.06v6.85h2.06v-3.63c0-.35.06-.65.18-.9s.29-.43.52-.56c.23-.13.51-.2.84-.2.14,0,.28.01.4.04.12.03.24.06.34.11v-1.75c-.09-.03-.19-.06-.3-.08-.11-.02-.22-.03-.34-.03"/><rect class="cls-2" x="174.26" y="78.26" width="2.06" height="6.85"/><path class="cls-2" d="M175.22,74.45l-1.2,1.36c.22.13.45.31.69.54.24.23.45.46.64.72l1.2-1.36c-.18-.25-.4-.49-.63-.72-.24-.23-.47-.41-.69-.54"/><path class="cls-2" d="M180.03,76.48h-2.06v1.26c0,.15.05.27.16.36.11.09.24.13.4.13v.02h-1.49v1.5h.93v3.44c0,.49.08.89.24,1.19.16.3.41.52.75.66.34.14.77.2,1.3.2.39,0,.73-.03,1.03-.08v-1.45c-.14.02-.28.04-.44.04-.28,0-.49-.07-.62-.21s-.2-.36-.2-.66v-3.12h1.26v-1.5h-1.26v-1.78Z"/><path class="cls-2" d="M186.65,78.26l-1.35,5.36h-.04l-1.35-5.36h-2.29l2.38,6.88-.06.18c-.06.17-.16.3-.3.39s-.33.14-.59.14c-.17,0-.31,0-.43-.02-.12-.01-.22-.03-.29-.04v1.48c.12.02.27.04.46.06.18.02.38.03.58.03.54,0,1.03-.06,1.44-.19.42-.13.78-.35,1.08-.67.3-.32.54-.76.72-1.33l2.23-6.9h-2.18Z"/></g></svg>